<?xml version="1.0" standalone="no"?>
<!DOCTYPE svg PUBLIC "-//W3C//DTD SVG 1.1//EN" "http://www.w3.org/Graphics/SVG/1.1/DTD/svg11.dtd" >
<svg xmlns="http://www.w3.org/2000/svg" xmlns:xlink="http://www.w3.org/1999/xlink" version="1.1">
<metadata>
Created by FontForge 20150102 at Fri Feb 27 20:18:12 2015
 By uniteet7
Copyright (c) 2011 by Slava Kirilenko. All rights reserved.
</metadata>
<defs>
<font id="Archive" horiz-adv-x="655" >
  <font-face 
    font-family="Archive"
    font-weight="400"
    font-stretch="normal"
    units-per-em="1000"
    panose-1="2 0 5 6 4 0 0 2 0 4"
    ascent="750"
    descent="-250"
    x-height="658"
    cap-height="658"
    bbox="0 -286 1187 921"
    underline-thickness="50"
    underline-position="-50"
    unicode-range="U+0020-2212"
  />
<missing-glyph horiz-adv-x="255" 
 />
    <glyph glyph-name=".notdef" horiz-adv-x="255" 
 />
    <glyph glyph-name=".null" horiz-adv-x="0" 
 />
    <glyph glyph-name="nonmarkingreturn" horiz-adv-x="333" 
 />
    <glyph glyph-name="space" unicode=" " horiz-adv-x="271" 
 />
    <glyph glyph-name="exclam" unicode="!" horiz-adv-x="322" 
d="M141 207q-18 0 -22.5 5t-6.5 24q-28 265 -41 384q-2 16 -2 17q0 12 6.5 16.5t22.5 4.5h134q17 0 23.5 -4t6.5 -17q0 -1 -2 -18q-13 -121 -42 -383q-2 -20 -6.5 -24.5t-21.5 -4.5h-49zM221 169q29 0 29 -29v-111q0 -29 -29 -29h-111q-29 0 -29 29v111q0 29 29 29h111z" />
    <glyph glyph-name="quotedbl" unicode="&#x22;" horiz-adv-x="443" 
d="M155 658q29 0 29 -29v-226q0 -29 -29 -29h-69q-29 0 -29 29v226q0 29 29 29h69zM357 658q28 0 28 -29v-226q0 -29 -28 -29h-70q-28 0 -28 29v226q0 29 28 29h70z" />
    <glyph glyph-name="numbersign" unicode="#" horiz-adv-x="658" 
d="M591 483q15 0 17.5 -7t0.5 -20l-7 -58q-4 -24 -26 -24h-58l-6 -45l-6 -45h58q15 0 17.5 -7t0.5 -20l-7 -58q-4 -24 -26 -24h-58l-22 -147q-3 -28 -30 -28h-73q-25 0 -20 32l22 143h-118l-22 -147q-3 -28 -30 -28h-73q-23 0 -21 32l22 143h-58q-22 0 -18 28l8 57
q3 24 25 24h58l12 90h-58q-22 0 -18 28l8 57q3 24 25 24h58l22 148q3 27 30 27h73q23 0 21 -32l-22 -143h118l22 148q3 27 29 27h74q25 0 20 -32l-22 -143h58zM383 284l11 90h-117l-12 -90h118z" />
    <glyph glyph-name="dollar" unicode="$" horiz-adv-x="605" 
d="M394 381q33 -10 47.5 -15t45 -21t45 -33t27.5 -48t13 -70q0 -87 -53.5 -139.5t-145.5 -65.5v-76q0 -29 -29 -29h-78q-29 0 -29 29v78q-85 18 -142.5 71t-57.5 134q0 17 6 22.5t23 5.5h97q19 0 27 -5t9 -23q2 -21 19 -41q27 -33 98 -33q46 0 72 14.5t26 53.5q0 16 -9 27.5
t-28 19t-38 12t-49 12t-50 13.5q-45 14 -74 27.5t-59.5 36t-45.5 56t-15 79.5q0 80 53.5 129t137.5 64v77q0 29 29 29h78q29 0 29 -29v-80q79 -16 130.5 -62t51.5 -119q0 -18 -5.5 -23t-23.5 -5h-98q-3 0 -6 0.5t-5.5 1.5t-4.5 3t-3 3.5t-2.5 4.5t-2 4.5t-2 5t-1.5 4.5
q-6 16 -21 30q-28 27 -85 27q-32 0 -60 -14t-28 -44q0 -27 34 -46.5t92 -35.5t61 -17z" />
    <glyph glyph-name="percent" unicode="%" horiz-adv-x="890" 
d="M690 369q60 0 102.5 -37t42.5 -95v-88q0 -59 -42.5 -96t-102.5 -37t-102.5 37t-42.5 96v88q0 58 42.5 95t102.5 37zM729 152v82q0 17 -11 30.5t-28 13.5q-16 0 -27 -13.5t-11 -30.5v-82q0 -17 11 -30.5t27 -13.5q17 0 28 13.5t11 30.5zM660 698q13 0 17 -8.5t-1 -17.5
l-351 -642q-16 -30 -37 -30h-58q-13 0 -17 8.5t1 17.5l352 642q14 30 36 30h58zM345 460q0 -58 -42.5 -95t-102.5 -37t-102.5 37t-42.5 95v88q0 59 42.5 96t102.5 37t102.5 -37t42.5 -96v-88zM238 463v82q0 17 -11 30.5t-27 13.5q-17 0 -28 -13.5t-11 -30.5v-82
q0 -17 11 -30.5t28 -13.5q16 0 27 13.5t11 30.5z" />
    <glyph glyph-name="ampersand" unicode="&#x26;" horiz-adv-x="721" 
d="M715 33q9 -10 3.5 -21.5t-19.5 -11.5h-111q-21 0 -43 20l-51 49q-78 -82 -198 -84q-110 0 -178.5 58.5t-68.5 158.5q0 71 46.5 120t105.5 63l-129 138q-7 9 -7 20v86q0 29 29 29h31h351q29 0 29 -29v-81q0 -29 -29 -29h-207l204 -222q8 14 16.5 27t15 22t7.5 11
q11 17 29 17h111q27 0 14 -28l-92 -158zM293 123q25 0 56 12.5t50 36.5l-101 109q-100 -3 -100 -80q0 -37 29 -57.5t66 -20.5z" />
    <glyph glyph-name="quotesingle" unicode="'" horiz-adv-x="241" 
d="M155 658q28 0 28 -29v-226q0 -29 -28 -29h-70q-28 0 -28 29v226q0 29 28 29h70z" />
    <glyph glyph-name="parenleft" unicode="(" horiz-adv-x="357" 
d="M216 261q1 -205 87 -387q4 -8 0.5 -16.5t-14.5 -8.5h-107q-18 0 -27 20q-89 188 -89 392q0 205 89 393q9 20 27 20h107q11 0 14.5 -8.5t-0.5 -16.5q-86 -182 -87 -388z" />
    <glyph glyph-name="parenright" unicode=")" horiz-adv-x="357" 
d="M141 261q-1 206 -87 388q-4 8 -0.5 16.5t14.5 8.5h107q18 0 27 -20q89 -188 89 -393q0 -204 -89 -392q-9 -20 -27 -20h-107q-11 0 -14.5 8.5t0.5 16.5q86 182 87 387z" />
    <glyph glyph-name="asterisk" unicode="*" horiz-adv-x="491" 
d="M434 502q9 -28 -18 -36l-98 -27l63 -80q18 -23 -6 -40l-36 -26q-23 -17 -41 6l-56 85l-56 -85q-17 -23 -40 -6l-36 26q-24 17 -6 40l63 80l-98 27q-27 8 -18 36l13 42q9 27 37 19l95 -36l-5 102q0 29 29 29h44q29 0 29 -29l-4 -102l95 36q28 8 37 -19z" />
    <glyph glyph-name="plus" unicode="+" horiz-adv-x="556" 
d="M483 383q29 0 29 -29v-78q0 -29 -29 -29h-134v-134q0 -29 -29 -29h-78q-29 0 -29 29v134h-135q-29 0 -29 29v78q0 29 29 29h135v134q0 29 29 29h78q29 0 29 -29v-134h134z" />
    <glyph glyph-name="comma" unicode="," horiz-adv-x="301" 
d="M206 169q29 0 29 -29v-90q0 -28 -7 -47l-57 -116q-11 -18 -27 -18h-64q-10 0 -12.5 9t2.5 19l55 103h-30q-29 0 -29 29v111q0 29 29 29h111z" />
    <glyph glyph-name="hyphen" unicode="-" horiz-adv-x="434" 
d="M353 335q29 0 29 -29v-78q0 -29 -29 -29h-272q-29 0 -29 29v78q0 29 29 29h272z" />
    <glyph glyph-name="period" unicode="." horiz-adv-x="283" 
d="M197 169q29 0 29 -29v-111q0 -29 -29 -29h-111q-29 0 -29 29v111q0 29 29 29h111z" />
    <glyph glyph-name="slash" unicode="/" horiz-adv-x="401" 
d="M284 693h85q17 0 21.5 -9t1.5 -19l-239 -638q-11 -27 -31 -27h-86q-17 0 -21.5 9t-1.5 19l240 638q11 27 31 27z" />
    <glyph glyph-name="zero" unicode="0" horiz-adv-x="599" 
d="M299 673q95 0 172.5 -59t77.5 -168v-234q0 -109 -77.5 -168t-172.5 -59q-43 0 -85.5 13.5t-80 40t-60.5 71.5t-23 102v234q0 57 23 102t60.5 71.5t80 40t85.5 13.5zM403 234v190q0 48 -29 78.5t-75 30.5t-74.5 -30.5t-28.5 -78.5v-190q0 -48 28.5 -78.5t74.5 -30.5
t75 30.5t29 78.5z" />
    <glyph glyph-name="one" unicode="1" horiz-adv-x="492" 
d="M405 140q29 0 29 -29v-82q0 -29 -29 -29h-310q-29 0 -29 29v82q0 29 29 29h85v268h-85q-29 0 -29 29v81q0 29 29 29h22q13 0 25.5 4.5t25 25t12.5 54.5q1 26 29 26h97q28 0 29 -26v-3v-488h70z" />
    <glyph glyph-name="two" unicode="2" horiz-adv-x="559" 
d="M484 140q29 0 29 -29v-82q0 -29 -29 -29h-414q-17 0 -22 5.5t-5 23.5v74q0 28 18 42q85 75 182 157q43 37 64 56.5t42 50t21 54.5q0 37 -23.5 55.5t-61.5 18.5q-41 0 -71 -29.5t-30 -72.5q0 -28 -26 -28h-88q-15 0 -21 6.5t-6 23.5q0 117 68.5 176t172.5 59
q94 0 166 -59.5t72 -148.5q0 -47 -20 -89.5t-39.5 -63t-57.5 -55.5l-132 -116h211z" />
    <glyph glyph-name="three" unicode="3" horiz-adv-x="562" 
d="M365 385q59 -14 105.5 -62t46.5 -120q0 -103 -71 -160t-178 -58q-96 0 -168 55t-72 134q0 19 5.5 24.5t22.5 5.5h89q12 0 17 -4.5t8 -17.5q10 -32 41 -45.5t63 -13.5q36 0 65 21t29 58q0 79 -106 79h-45q-17 0 -22 5.5t-5 23.5v64q0 20 12 34l105 110h-217q-29 0 -29 29
v81q0 29 29 29h382q29 0 29 -29v-81q0 -15 -11 -29z" />
    <glyph glyph-name="four" unicode="4" horiz-adv-x="614" 
d="M546 269q29 0 29 -29v-82q0 -29 -29 -29h-60v-100q0 -29 -29 -29h-94q-29 0 -29 29v100h-279q-29 0 -29 29v82q0 14 15 35l287 366q15 18 30 18h99q29 0 29 -29v-361h60zM334 269v188l-144 -188h144z" />
    <glyph glyph-name="five" unicode="5" horiz-adv-x="561" 
d="M290 425q96 0 159 -61t63 -158q0 -102 -74 -161.5t-173 -59.5q-96 0 -166.5 55.5t-70.5 134.5q0 18 5 23.5t22 5.5h90q13 0 17.5 -3.5t6.5 -15.5q9 -29 35.5 -45t60.5 -16q48 0 74.5 25.5t26.5 66.5q0 37 -29 63.5t-70 26.5q-33 0 -53.5 -9t-46.5 -28q-6 -4 -22 -4h-82
q-16 0 -21.5 5.5t-5.5 24.5l25 333q1 15 7 22t21 7h355q29 0 29 -29v-82q0 -29 -29 -29h-248l-9 -117q40 25 103 25z" />
    <glyph glyph-name="six" unicode="6" horiz-adv-x="593" 
d="M39 216q0 45 16 94q17 49 66 125l124 194q17 28 48 28h127q13 0 17 -10.5t-4 -20.5l-134 -188q24 4 36 4q88 0 152.5 -61.5t64.5 -150.5q0 -101 -74.5 -173t-180.5 -72q-64 0 -122 27t-97 81t-39 123zM191 223q0 -42 30 -71.5t73 -29.5t73.5 29.5t30.5 71.5t-30.5 71
t-73.5 29t-73 -29t-30 -71z" />
    <glyph glyph-name="seven" unicode="7" horiz-adv-x="539" 
d="M476 657q29 0 29 -29v-78q0 -10 -2.5 -20.5t-5.5 -15.5l-3 -5l-233 -479q-14 -30 -40 -30h-127q-12 0 -15 8t4 22l252 486h-245q-29 0 -29 29v83q0 29 29 29h386z" />
    <glyph glyph-name="eight" unicode="8" horiz-adv-x="585" 
d="M545 189q0 -89 -67 -146t-188 -57q-122 0 -189 57t-67 146q0 101 110 159q-40 24 -63.5 61t-23.5 79q0 78 61 130.5t172 52.5q110 0 171 -52.5t61 -130.5q0 -42 -23.5 -79t-63.5 -61q110 -57 110 -159zM385 198q0 34 -28 57t-67 23q-40 0 -67.5 -23t-27.5 -57t27.5 -57
t67.5 -23q39 0 67 23t28 57zM213 483q0 -23 19 -45.5t58 -22.5q38 0 57.5 22.5t19.5 45.5q0 30 -22.5 50.5t-54.5 20.5t-54.5 -20.5t-22.5 -50.5z" />
    <glyph glyph-name="nine" unicode="9" horiz-adv-x="591" 
d="M552 441q0 -45 -16 -94q-17 -49 -66 -125l-124 -194q-17 -28 -48 -28h-127q-13 0 -17 10.5t4 20.5l134 188q-24 -4 -36 -4q-88 0 -152.5 61.5t-64.5 150.5q0 101 74.5 173t180.5 72q64 0 122 -27t97 -81t39 -123zM400 434q0 42 -30 71.5t-73 29.5t-73.5 -29.5
t-30.5 -71.5t30.5 -71t73.5 -29t73 29t30 71z" />
    <glyph glyph-name="colon" unicode=":" horiz-adv-x="306" 
d="M220 169q29 0 29 -29v-111q0 -29 -29 -29h-111q-29 0 -29 29v111q0 29 29 29h111zM220 445q29 0 29 -29v-111q0 -29 -29 -29h-111q-29 0 -29 29v111q0 29 29 29h111z" />
    <glyph glyph-name="semicolon" unicode=";" horiz-adv-x="309" 
d="M221 445q19 0 25 -6.5t6 -27.5v-103q0 -20 -6 -26t-25 -6h-107q-19 0 -25 6t-6 26v103q0 21 6 27.5t25 6.5h107zM223 169q29 0 29 -29v-91q0 -27 -7 -46l-57 -116q-10 -18 -27 -18h-64q-10 0 -12.5 8.5t3.5 18.5l54 104h-30q-29 0 -29 29v111q0 29 29 29h111z" />
    <glyph glyph-name="less" unicode="&#x3c;" horiz-adv-x="566" 
d="M75 314l406 160q32 13 32 -16v-90q0 -12 -6 -20t-9.5 -10t-14.5 -6l-255 -93l255 -93q23 -10 28 -22q2 -6 2 -14v-89q0 -30 -32 -17l-406 160q-22 9 -22 41v68q0 32 22 41z" />
    <glyph glyph-name="equal" unicode="=" horiz-adv-x="561" 
d="M482 271q29 0 29 -29v-78q0 -29 -29 -29h-404q-29 0 -29 29v78q0 29 29 29h404zM482 507q29 0 29 -29v-78q0 -29 -29 -29h-404q-29 0 -29 29v78q0 29 29 29h404z" />
    <glyph glyph-name="greater" unicode="&#x3e;" horiz-adv-x="566" 
d="M85 474l406 -160q22 -9 22 -41v-68q0 -32 -22 -41l-406 -160q-32 -13 -32 17v89q0 12 6 20t9.5 10t14.5 6l255 93l-255 93q-23 10 -28 22q-2 6 -2 14v90q0 29 32 16z" />
    <glyph glyph-name="question" unicode="?" horiz-adv-x="546" 
d="M516 489q0 -32 -15.5 -60.5t-31 -43t-40.5 -32.5q-24 -16 -37 -27t-26.5 -34t-13.5 -49q0 -18 -6.5 -25t-25.5 -7h-83q-32 0 -32 32q0 93 53 147q13 13 39.5 28.5t42 30t15.5 34.5q0 24 -20.5 39.5t-48.5 15.5q-35 0 -57 -19.5t-28 -43.5q-2 -10 -4 -15.5t-9 -10.5
t-18 -5h-100q-11 0 -14 6.5t-3 24.5q3 33 16 64.5t38 63t71 50.5t107 19q96 0 163.5 -47t67.5 -136zM331 169q29 0 29 -29v-111q0 -29 -29 -29h-111q-29 0 -29 29v111q0 29 29 29h111z" />
    <glyph glyph-name="at" unicode="@" horiz-adv-x="833" 
d="M691 0h-85q-30 0 -30 23v10q-40 -35 -95 -35q-66 0 -108 39q-28 27 -35.5 63t-7.5 105q0 67 7.5 99t35.5 60q42 40 107 40q52 0 91 -31v22q0 54 -26 80q-27 27 -81 27h-104q-61 0 -88 -27q-26 -26 -26 -80v-221q0 -37 17 -58q5 -7 2 -17.5t-12 -18.5l-74 -55
q-6 -5 -18 -4.5t-18 7.5q-42 54 -42 137v235q0 63 12 106.5t45 76.5q57 57 192 57h124q127 0 184 -57q33 -33 45 -76.5t12 -106.5v-370q0 -10 -5.5 -20t-18.5 -10zM571 173v50q0 27 -17.5 44t-43.5 17q-25 0 -41.5 -17t-16.5 -44v-50q0 -26 16.5 -43t41.5 -17q26 0 43.5 17
t17.5 43z" />
    <glyph glyph-name="A" unicode="A" 
d="M640 28q12 -28 -17 -28h-105q-17 0 -24.5 6t-13.5 24l-28 79h-245l-28 -79q-6 -18 -13.5 -24t-24.5 -6h-105q-29 0 -17 28l222 599q12 31 41 31h96q28 0 41 -31zM255 249h150l-75 221z" />
    <glyph glyph-name="B" unicode="B" horiz-adv-x="687" 
d="M543 341q5 -2 13 -6t22.5 -16.5t26.5 -28t21 -42t9 -56.5q0 -93 -65 -142.5t-173 -49.5h-294q-29 0 -29 29v601q0 29 29 29h280q115 0 174 -52t59 -129q0 -35 -9.5 -62.5t-24 -43t-23.5 -22t-16 -9.5zM399 142q77 0 77 65q0 61 -83 61h-23q-29 0 -29 29v76q0 29 29 29h13
q83 0 83 60q0 32 -20.5 44t-62.5 12h-152v-376h168z" />
    <glyph glyph-name="C" unicode="C" horiz-adv-x="632" 
d="M581 195q0 -92 -80.5 -151t-179.5 -59q-47 0 -92.5 13.5t-85.5 40t-65 71.5t-25 101v236q0 56 25 101t65 71.5t85.5 40t92.5 13.5q100 0 175.5 -50t84.5 -140q0 -18 -6.5 -23.5t-24.5 -5.5h-96q-9 0 -14.5 4.5t-9.5 14t-6 12.5q-31 48 -103 48q-50 0 -80.5 -26.5
t-30.5 -73.5v-208q0 -47 30.5 -73.5t80.5 -26.5q94 0 105 68q2 13 3.5 19t7.5 11.5t16 5.5h98q30 0 30 -34z" />
    <glyph glyph-name="D" unicode="D" horiz-adv-x="650" 
d="M327 658q64 0 123 -22.5t102.5 -76t43.5 -126.5v-208q0 -74 -43.5 -127t-102.5 -75.5t-123 -22.5h-224q-29 0 -29 29v600q0 29 29 29h224zM439 239v180q0 47 -31 73.5t-81 26.5h-96v-380h96q51 0 81.5 26.5t30.5 73.5z" />
    <glyph glyph-name="E" unicode="E" horiz-adv-x="627" 
d="M551 140q29 0 29 -29v-82q0 -29 -29 -29h-448q-29 0 -29 29v600q0 29 29 29h431q29 0 29 -29v-83q0 -29 -29 -29h-302v-109h268q29 0 29 -29v-78q0 -29 -29 -29h-268v-132h319z" />
    <glyph glyph-name="F" unicode="F" horiz-adv-x="602" 
d="M533 658q29 0 29 -29v-82q0 -29 -29 -29h-302v-117h260q29 0 29 -29v-79q0 -29 -29 -29h-260v-234q0 -19 -5.5 -24.5t-23.5 -5.5h-99q-29 0 -29 29v600q0 29 29 29h430z" />
    <glyph glyph-name="G" unicode="G" horiz-adv-x="646" 
d="M563 367q29 0 29 -29v-145q-4 -68 -48.5 -117t-102 -70t-118.5 -21q-47 0 -92.5 12.5t-86 37t-65.5 68t-25 99.5v246q0 57 25 101.5t65.5 70.5t86.5 39.5t92 13.5q103 0 186 -56t83 -150q0 -18 -5.5 -23t-23.5 -5h-97q-10 0 -16 3.5t-7.5 7.5t-3 12t-2.5 11
q-9 26 -38 43.5t-76 17.5q-49 0 -79.5 -30t-30.5 -78v-201q0 -47 30 -74t80 -27q111 0 111 107h-90q-29 0 -29 29v78q0 29 29 29h219z" />
    <glyph glyph-name="H" unicode="H" horiz-adv-x="685" 
d="M582 658q29 0 29 -29v-600q0 -29 -29 -29h-99q-29 0 -29 29v226h-223v-226q0 -17 -7 -23t-22 -6h-99q-29 0 -29 29v600q0 29 29 29h99q15 0 22 -6t7 -23v-226h223v226q0 29 29 29h99z" />
    <glyph glyph-name="I" unicode="I" horiz-adv-x="444" 
d="M360 137q29 0 29 -29v-79q0 -29 -29 -29h-283q-29 0 -29 29v79q0 29 29 29h63v382h-61q-29 0 -29 29v81q0 29 29 29h278q29 0 29 -29v-81q0 -29 -29 -29h-60v-382h63z" />
    <glyph glyph-name="J" unicode="J" horiz-adv-x="580" 
d="M484 674q29 0 29 -29v-430q0 -108 -73.5 -161.5t-174.5 -53.5q-104 0 -169.5 57t-65.5 159q0 27 24 27h106q25 0 25 -21q4 -83 80 -83q91 0 91 98v296h-175q-29 0 -29 29v83q0 29 29 29h303z" />
    <glyph glyph-name="K" unicode="K" horiz-adv-x="654" 
d="M622 658q13 0 15.5 -10.5t-5.5 -17.5l-225 -244l215 -354q7 -10 2.5 -21t-17.5 -11h-122q-30 0 -50 32q-89 150 -143 240l-62 -65v-178q0 -29 -28 -29h-99q-15 0 -22 6t-7 23v600q0 17 7 23t22 6h99q28 0 28 -29v-223l207 228q15 16 23.5 20t26.5 4h135z" />
    <glyph glyph-name="L" unicode="L" horiz-adv-x="582" 
d="M519 140q29 0 29 -29v-82q0 -29 -29 -29h-416q-29 0 -29 29v600q0 29 29 29h99q29 0 29 -29v-489h288z" />
    <glyph glyph-name="M" unicode="M" horiz-adv-x="767" 
d="M664 659q29 0 29 -29v-601q0 -29 -29 -29h-96q-29 0 -29 29v339l-100 -175q-13 -21 -29 -21h-50q-15 0 -28 21l-101 175v-339q0 -29 -29 -29h-99q-29 0 -29 29v601q0 29 29 29h99q12 0 20.5 -4t12 -8t8 -12.5t5.5 -9.5l137 -246l138 246q1 1 4 7.5t5.5 10t7 8t12 6.5
t16.5 2h96z" />
    <glyph glyph-name="N" unicode="N" horiz-adv-x="682" 
d="M579 658q29 0 29 -29v-600q0 -29 -29 -29h-91q-12 0 -20.5 5.5t-12 9.5t-12.5 19l-212 343v-348q0 -29 -29 -29h-99q-29 0 -29 29v600q0 29 29 29h94q12 0 20.5 -5.5t12 -9.5t12.5 -19l212 -342v347q0 29 29 29h96z" />
    <glyph glyph-name="O" unicode="O" horiz-adv-x="645" 
d="M591 447v-236q0 -57 -25 -101.5t-65 -71t-86 -40t-93 -13.5t-92.5 13.5t-85.5 40t-64.5 71t-24.5 101.5v236q0 57 24.5 101.5t64.5 71t85.5 40t92.5 13.5t93 -13.5t86 -40t65 -71t25 -101.5zM434 225v208q0 47 -31 74t-81 27t-80.5 -27t-30.5 -74v-208q0 -47 30.5 -74
t80.5 -27t81 27t31 74z" />
    <glyph glyph-name="P" unicode="P" horiz-adv-x="628" 
d="M328 658q126 0 194 -63t68 -169t-68.5 -168.5t-194.5 -62.5h-96v-166q0 -29 -29 -29h-99q-29 0 -29 29v600q0 29 29 29h225zM327 330q55 0 83.5 26.5t28.5 66.5q0 42 -28 68t-84 26h-96v-187h96z" />
    <glyph glyph-name="Q" unicode="Q" horiz-adv-x="646" 
d="M593 47q22 -20 -4 -46l-48 -39q-25 -25 -45 -5l-48 49q-51 -22 -127 -22q-47 0 -92.5 13.5t-85.5 40t-64.5 71t-24.5 101.5v236q0 57 24.5 101.5t64.5 71t85.5 40t92.5 13.5t93 -13.5t86 -40t65 -71t25 -101.5v-236q0 -76 -35 -120zM434 225v208q0 47 -31 74t-81 27
t-80.5 -27t-30.5 -74v-208q0 -47 30.5 -74t80.5 -27t81 27t31 74z" />
    <glyph glyph-name="R" unicode="R" horiz-adv-x="666" 
d="M613 32q7 -10 3 -21t-18 -11h-118q-30 0 -50 30l-108 161q-11 15 -11 51v80q0 29 29 29h20q38 0 66.5 23.5t28.5 57.5q0 38 -26 61.5t-66 23.5h-133v-488q0 -29 -29 -29h-99q-28 0 -28 29v599q0 29 28 29h252q78 0 121.5 -15t77.5 -49q58 -56 58 -157q0 -73 -43 -127
t-96 -72z" />
    <glyph glyph-name="S" unicode="S" horiz-adv-x="605" 
d="M384 382q33 -10 47.5 -15t45 -21t45 -33t27.5 -48t13 -70q0 -103 -73 -156.5t-193 -53.5q-65 0 -125 23t-102 73t-42 116q0 17 6 22.5t23 5.5h97q19 0 27 -5t9 -23q2 -21 19 -41q28 -33 98 -33q46 0 72 14.5t26 53.5q0 16 -9 27.5t-28 19t-38 12t-49 12t-50 13.5
q-45 14 -74 27.5t-59.5 36t-45.5 56t-15 79.5q0 92 70.5 143.5t172.5 55.5q106 0 186 -49t80 -141q0 -18 -5.5 -23t-23.5 -5h-98q-3 0 -6 0.5t-5.5 1.5t-4.5 3t-3 3.5t-2.5 4.5t-2 4.5t-2 5t-1.5 4.5q-6 15 -21 30q-28 27 -85 27q-32 0 -60 -14t-28 -44q0 -27 34 -46.5
t92 -35.5t61 -17z" />
    <glyph glyph-name="T" unicode="T" horiz-adv-x="574" 
d="M519 658q29 0 29 -29v-83q0 -29 -29 -29h-153v-488q0 -29 -29 -29h-99q-29 0 -29 29v488h-154q-29 0 -29 29v83q0 29 29 29h464z" />
    <glyph glyph-name="U" unicode="U" horiz-adv-x="661" 
d="M566 658q29 0 29 -29v-428q0 -56 -24.5 -99.5t-64 -68t-84.5 -36.5t-92 -12t-92 12t-84.5 36.5t-63.5 68t-24 99.5v428q0 29 29 29h99q29 0 29 -29v-406q0 -47 28.5 -73t78.5 -26t79 26t29 73v406q0 29 29 29h99z" />
    <glyph glyph-name="V" unicode="V" horiz-adv-x="636" 
d="M599 658q13 0 17.5 -9t0.5 -20l-214 -599q-9 -19 -16.5 -24.5t-24.5 -5.5h-96q-17 0 -24.5 5.5t-16.5 24.5l-215 599q-4 11 0.5 20t17.5 9h111q19 0 27 -6.5t14 -25.5l136 -414l135 414q6 19 14 25.5t28 6.5h106z" />
    <glyph glyph-name="W" unicode="W" horiz-adv-x="898" 
d="M859 658q12 0 16 -9.5t1 -19.5l-184 -608q-5 -21 -27 -21h-84q-12 0 -20 6t-10 12l-2 5l-100 319l-100 -319q-6 -23 -32 -23h-88q-10 0 -16.5 5t-8.5 11l-2 5l-185 608q-3 11 1.5 20t16.5 9h110q14 0 23 -6.5t11.5 -11.5t5.5 -14l99 -340l96 340q9 32 34 32h70
q24 0 33 -32l97 -340l99 340q8 32 40 32h106z" />
    <glyph glyph-name="X" unicode="X" horiz-adv-x="586" 
d="M386 337l177 -306q6 -9 2.5 -20t-14.5 -11h-114q-18 0 -26 4.5t-18 23.5l-99 178l-100 -178q-9 -18 -17.5 -23t-26.5 -5h-114q-11 0 -14.5 11t2.5 20l178 306l-181 293q-5 8 -1 18t16 10h118q14 0 22 -6t18 -23l100 -161l99 161q11 17 19 23t22 6h117q12 0 16.5 -10
t-1.5 -18z" />
    <glyph glyph-name="Y" unicode="Y" horiz-adv-x="604" 
d="M575 658q13 0 17 -10t-1 -18l-206 -383v-218q0 -29 -29 -29h-100q-15 0 -22 6t-7 23v218l-214 383q-5 8 -1 18t17 10h115q18 0 27.5 -5.5t19.5 -24.5l117 -215l113 215q9 19 18.5 24.5t27.5 5.5h108z" />
    <glyph glyph-name="Z" unicode="Z" horiz-adv-x="567" 
d="M502 140q29 0 29 -29v-82q0 -29 -29 -29h-436q-19 0 -24.5 5.5t-5.5 23.5v78q0 10 3 19.5t7 13.5l3 5l270 373h-245q-29 0 -29 29v82q0 29 29 29h402q29 0 29 -29v-78q0 -22 -13 -39l-268 -372h278z" />
    <glyph glyph-name="bracketleft" unicode="[" horiz-adv-x="414" 
d="M227 533v-549h118q29 0 29 -29v-82q0 -29 -29 -29h-242q-29 0 -29 29v771q0 29 29 29h242q29 0 29 -29v-82q0 -29 -29 -29h-118z" />
    <glyph glyph-name="backslash" unicode="\" horiz-adv-x="401" 
d="M33 693h85q20 0 31 -27l240 -638q3 -10 -1.5 -19t-21.5 -9h-86q-20 0 -31 27l-239 638q-3 10 1.5 19t21.5 9z" />
    <glyph glyph-name="bracketright" unicode="]" horiz-adv-x="414" 
d="M187 -16v549h-118q-29 0 -29 29v82q0 29 29 29h242q29 0 29 -29v-771q0 -29 -29 -29h-242q-29 0 -29 29v82q0 29 29 29h118z" />
    <glyph glyph-name="asciicircum" unicode="^" horiz-adv-x="536" 
d="M475 342q3 -6 3 -11q0 -14 -18 -14h-94q-7 0 -12.5 1t-8.5 4t-4.5 5t-3.5 7t-3 7l-66 144l-66 -144l-3 -6t-2.5 -5.5t-3 -4.5t-5.5 -4.5t-8 -2.5t-11 -1h-93q-19 0 -19 15q0 4 3 10l142 298q8 18 23 18h86q15 0 22 -18z" />
    <glyph glyph-name="underscore" unicode="_" horiz-adv-x="590" 
d="M561 -88q29 0 29 -29v-31q0 -29 -29 -29h-532q-29 0 -29 29v31q0 29 29 29h532z" />
    <glyph glyph-name="grave" unicode="`" horiz-adv-x="556" 
d="M346 494h-98q-7 0 -13 1.5t-11 5t-7.5 5.5t-8 8t-7.5 8l-100 108q-8 7 -3 17.5t22 10.5h127q17 0 25.5 -5t19.5 -23l67 -108q6 -7 3 -17.5t-16 -10.5z" />
    <glyph glyph-name="a" unicode="a" 
d="M640 28q12 -28 -17 -28h-105q-17 0 -24.5 6t-13.5 24l-28 79h-245l-28 -79q-6 -18 -13.5 -24t-24.5 -6h-105q-29 0 -17 28l222 599q12 31 41 31h96q28 0 41 -31zM255 249h150l-75 221z" />
    <glyph glyph-name="b" unicode="b" horiz-adv-x="687" 
d="M543 341q5 -2 13 -6t22.5 -16.5t26.5 -28t21 -42t9 -56.5q0 -93 -65 -142.5t-173 -49.5h-294q-29 0 -29 29v601q0 29 29 29h280q115 0 174 -52t59 -129q0 -35 -9.5 -62.5t-24 -43t-23.5 -22t-16 -9.5zM399 142q77 0 77 65q0 61 -83 61h-23q-29 0 -29 29v76q0 29 29 29h13
q83 0 83 60q0 32 -20.5 44t-62.5 12h-152v-376h168z" />
    <glyph glyph-name="c" unicode="c" horiz-adv-x="632" 
d="M581 195q0 -92 -80.5 -151t-179.5 -59q-47 0 -92.5 13.5t-85.5 40t-65 71.5t-25 101v236q0 56 25 101t65 71.5t85.5 40t92.5 13.5q100 0 175.5 -50t84.5 -140q0 -18 -6.5 -23.5t-24.5 -5.5h-96q-9 0 -14.5 4.5t-9.5 14t-6 12.5q-31 48 -103 48q-50 0 -80.5 -26.5
t-30.5 -73.5v-208q0 -47 30.5 -73.5t80.5 -26.5q94 0 105 68q2 13 3.5 19t7.5 11.5t16 5.5h98q30 0 30 -34z" />
    <glyph glyph-name="d" unicode="d" horiz-adv-x="650" 
d="M327 658q64 0 123 -22.5t102.5 -76t43.5 -126.5v-208q0 -74 -43.5 -127t-102.5 -75.5t-123 -22.5h-224q-29 0 -29 29v600q0 29 29 29h224zM439 239v180q0 47 -31 73.5t-81 26.5h-96v-380h96q51 0 81.5 26.5t30.5 73.5z" />
    <glyph glyph-name="e" unicode="e" horiz-adv-x="627" 
d="M551 140q29 0 29 -29v-82q0 -29 -29 -29h-448q-29 0 -29 29v600q0 29 29 29h431q29 0 29 -29v-83q0 -29 -29 -29h-302v-109h268q29 0 29 -29v-78q0 -29 -29 -29h-268v-132h319z" />
    <glyph glyph-name="f" unicode="f" horiz-adv-x="602" 
d="M533 658q29 0 29 -29v-82q0 -29 -29 -29h-302v-117h260q29 0 29 -29v-79q0 -29 -29 -29h-260v-234q0 -19 -5.5 -24.5t-23.5 -5.5h-99q-29 0 -29 29v600q0 29 29 29h430z" />
    <glyph glyph-name="g" unicode="g" horiz-adv-x="646" 
d="M563 367q29 0 29 -29v-145q-4 -68 -48.5 -117t-102 -70t-118.5 -21q-47 0 -92.5 12.5t-86 37t-65.5 68t-25 99.5v246q0 57 25 101.5t65.5 70.5t86.5 39.5t92 13.5q103 0 186 -56t83 -150q0 -18 -5.5 -23t-23.5 -5h-97q-10 0 -16 3.5t-7.5 7.5t-3 12t-2.5 11
q-9 26 -38 43.5t-76 17.5q-49 0 -79.5 -30t-30.5 -78v-201q0 -47 30 -74t80 -27q111 0 111 107h-90q-29 0 -29 29v78q0 29 29 29h219z" />
    <glyph glyph-name="h" unicode="h" horiz-adv-x="685" 
d="M582 658q29 0 29 -29v-600q0 -29 -29 -29h-99q-29 0 -29 29v226h-223v-226q0 -17 -7 -23t-22 -6h-99q-29 0 -29 29v600q0 29 29 29h99q15 0 22 -6t7 -23v-226h223v226q0 29 29 29h99z" />
    <glyph glyph-name="i" unicode="i" horiz-adv-x="444" 
d="M360 137q29 0 29 -29v-79q0 -29 -29 -29h-283q-29 0 -29 29v79q0 29 29 29h63v382h-61q-29 0 -29 29v81q0 29 29 29h278q29 0 29 -29v-81q0 -29 -29 -29h-60v-382h63z" />
    <glyph glyph-name="j" unicode="j" horiz-adv-x="580" 
d="M484 663q29 0 29 -29v-419q0 -108 -73.5 -161.5t-174.5 -53.5q-104 0 -169.5 57t-65.5 159q0 27 24 27h106q25 0 25 -21q4 -83 80 -83q91 0 91 98v285h-175q-29 0 -29 29v83q0 29 29 29h303z" />
    <glyph glyph-name="k" unicode="k" horiz-adv-x="654" 
d="M622 658q13 0 15.5 -10.5t-5.5 -17.5l-225 -244l215 -354q7 -10 2.5 -21t-17.5 -11h-122q-30 0 -50 32q-89 150 -143 240l-62 -65v-178q0 -29 -28 -29h-99q-15 0 -22 6t-7 23v600q0 17 7 23t22 6h99q28 0 28 -29v-223l207 228q15 16 23.5 20t26.5 4h135z" />
    <glyph glyph-name="l" unicode="l" horiz-adv-x="582" 
d="M519 140q29 0 29 -29v-82q0 -29 -29 -29h-416q-29 0 -29 29v600q0 29 29 29h99q29 0 29 -29v-489h288z" />
    <glyph glyph-name="m" unicode="m" horiz-adv-x="767" 
d="M664 659q29 0 29 -29v-601q0 -29 -29 -29h-96q-29 0 -29 29v339l-100 -175q-13 -21 -29 -21h-50q-15 0 -28 21l-101 175v-339q0 -29 -29 -29h-99q-29 0 -29 29v601q0 29 29 29h99q12 0 20.5 -4t12 -8t8 -12.5t5.5 -9.5l137 -246l138 246q1 1 4 7.5t5.5 10t7 8t12 6.5
t16.5 2h96z" />
    <glyph glyph-name="n" unicode="n" horiz-adv-x="682" 
d="M579 658q29 0 29 -29v-600q0 -29 -29 -29h-91q-12 0 -20.5 5.5t-12 9.5t-12.5 19l-212 343v-348q0 -29 -29 -29h-99q-29 0 -29 29v600q0 29 29 29h94q12 0 20.5 -5.5t12 -9.5t12.5 -19l212 -342v347q0 29 29 29h96z" />
    <glyph glyph-name="o" unicode="o" horiz-adv-x="645" 
d="M591 447v-236q0 -57 -25 -101.5t-65 -71t-86 -40t-93 -13.5t-92.5 13.5t-85.5 40t-64.5 71t-24.5 101.5v236q0 57 24.5 101.5t64.5 71t85.5 40t92.5 13.5t93 -13.5t86 -40t65 -71t25 -101.5zM434 225v208q0 47 -31 74t-81 27t-80.5 -27t-30.5 -74v-208q0 -47 30.5 -74
t80.5 -27t81 27t31 74z" />
    <glyph glyph-name="p" unicode="p" horiz-adv-x="628" 
d="M328 658q126 0 194 -63t68 -169t-68.5 -168.5t-194.5 -62.5h-96v-166q0 -29 -29 -29h-99q-29 0 -29 29v600q0 29 29 29h225zM327 330q55 0 83.5 26.5t28.5 66.5q0 42 -28 68t-84 26h-96v-187h96z" />
    <glyph glyph-name="q" unicode="q" horiz-adv-x="646" 
d="M593 47q22 -20 -4 -46l-48 -39q-25 -25 -45 -5l-48 49q-51 -22 -127 -22q-47 0 -92.5 13.5t-85.5 40t-64.5 71t-24.5 101.5v236q0 57 24.5 101.5t64.5 71t85.5 40t92.5 13.5t93 -13.5t86 -40t65 -71t25 -101.5v-236q0 -76 -35 -120zM434 225v208q0 47 -31 74t-81 27
t-80.5 -27t-30.5 -74v-208q0 -47 30.5 -74t80.5 -27t81 27t31 74z" />
    <glyph glyph-name="r" unicode="r" horiz-adv-x="666" 
d="M613 32q7 -10 3 -21t-18 -11h-118q-30 0 -50 30l-108 161q-11 15 -11 51v80q0 29 29 29h20q38 0 66.5 23.5t28.5 57.5q0 38 -26 61.5t-66 23.5h-133v-488q0 -29 -29 -29h-99q-28 0 -28 29v599q0 29 28 29h252q78 0 121.5 -15t77.5 -49q58 -56 58 -157q0 -73 -43 -127
t-96 -72z" />
    <glyph glyph-name="s" unicode="s" horiz-adv-x="605" 
d="M384 382q33 -10 47.5 -15t45 -21t45 -33t27.5 -48t13 -70q0 -103 -73 -156.5t-193 -53.5q-65 0 -125 23t-102 73t-42 116q0 17 6 22.5t23 5.5h97q19 0 27 -5t9 -23q2 -21 19 -41q28 -33 98 -33q46 0 72 14.5t26 53.5q0 16 -9 27.5t-28 19t-38 12t-49 12t-50 13.5
q-45 14 -74 27.5t-59.5 36t-45.5 56t-15 79.5q0 92 70.5 143.5t172.5 55.5q106 0 186 -49t80 -141q0 -18 -5.5 -23t-23.5 -5h-98q-3 0 -6 0.5t-5.5 1.5t-4.5 3t-3 3.5t-2.5 4.5t-2 4.5t-2 5t-1.5 4.5q-6 15 -21 30q-28 27 -85 27q-32 0 -60 -14t-28 -44q0 -27 34 -46.5
t92 -35.5t61 -17z" />
    <glyph glyph-name="t" unicode="t" horiz-adv-x="574" 
d="M519 658q29 0 29 -29v-83q0 -29 -29 -29h-153v-488q0 -29 -29 -29h-99q-29 0 -29 29v488h-154q-29 0 -29 29v83q0 29 29 29h464z" />
    <glyph glyph-name="u" unicode="u" horiz-adv-x="661" 
d="M566 658q29 0 29 -29v-428q0 -56 -24.5 -99.5t-64 -68t-84.5 -36.5t-92 -12t-92 12t-84.5 36.5t-63.5 68t-24 99.5v428q0 29 29 29h99q29 0 29 -29v-406q0 -47 28.5 -73t78.5 -26t79 26t29 73v406q0 29 29 29h99z" />
    <glyph glyph-name="v" unicode="v" horiz-adv-x="636" 
d="M599 658q13 0 17.5 -9t0.5 -20l-214 -599q-9 -19 -16.5 -24.5t-24.5 -5.5h-96q-17 0 -24.5 5.5t-16.5 24.5l-215 599q-4 11 0.5 20t17.5 9h111q19 0 27 -6.5t14 -25.5l136 -414l135 414q6 19 14 25.5t28 6.5h106z" />
    <glyph glyph-name="w" unicode="w" horiz-adv-x="898" 
d="M859 658q12 0 16 -9.5t1 -19.5l-184 -608q-5 -21 -27 -21h-84q-12 0 -20 6t-10 12l-2 5l-100 319l-100 -319q-6 -23 -32 -23h-88q-10 0 -16.5 5t-8.5 11l-2 5l-185 608q-3 11 1.5 20t16.5 9h110q14 0 23 -6.5t11.5 -11.5t5.5 -14l99 -340l96 340q9 32 34 32h70
q24 0 33 -32l97 -340l99 340q8 32 40 32h106z" />
    <glyph glyph-name="x" unicode="x" horiz-adv-x="586" 
d="M386 337l177 -306q6 -9 2.5 -20t-14.5 -11h-114q-18 0 -26 4.5t-18 23.5l-99 178l-100 -178q-9 -18 -17.5 -23t-26.5 -5h-114q-11 0 -14.5 11t2.5 20l178 306l-181 293q-5 8 -1 18t16 10h118q14 0 22 -6t18 -23l100 -161l99 161q11 17 19 23t22 6h117q12 0 16.5 -10
t-1.5 -18z" />
    <glyph glyph-name="y" unicode="y" horiz-adv-x="604" 
d="M575 658q13 0 17 -10t-1 -18l-206 -383v-218q0 -29 -29 -29h-100q-15 0 -22 6t-7 23v218l-214 383q-5 8 -1 18t17 10h115q18 0 27.5 -5.5t19.5 -24.5l117 -215l113 215q9 19 18.5 24.5t27.5 5.5h108z" />
    <glyph glyph-name="z" unicode="z" horiz-adv-x="567" 
d="M502 140q29 0 29 -29v-82q0 -29 -29 -29h-436q-19 0 -24.5 5.5t-5.5 23.5v78q0 10 3 19.5t7 13.5l3 5l270 373h-245q-29 0 -29 29v82q0 29 29 29h402q29 0 29 -29v-78q0 -22 -13 -39l-268 -372h278z" />
    <glyph glyph-name="braceleft" unicode="{" horiz-adv-x="499" 
d="M426 328q29 0 29 -29v-82q0 -29 -29 -29h-32q-32 -1 -49 -17q-16 -17 -16 -60v-115q0 -66 -46 -112q-42 -40 -114 -40h-96q-29 0 -29 29v82q0 29 29 29h47q34 2 46 14q16 15 16 63v101q0 78 70 95l6 2l-7 1q-69 18 -69 95v101q0 47 -16 63q-12 12 -46 14h-47
q-29 0 -29 29v82q0 29 29 29h96q72 0 114 -40q46 -46 46 -112v-115q0 -43 16 -60q19 -18 56 -18h25z" />
    <glyph glyph-name="bar" unicode="|" horiz-adv-x="337" 
d="M208 792q29 0 29 -29v-900q0 -29 -29 -29h-79q-29 0 -29 29v900q0 29 29 29h79z" />
    <glyph glyph-name="braceright" unicode="}" horiz-adv-x="499" 
d="M73 328h25q36 0 56 18q16 17 16 60v115q0 66 46 112q42 40 114 40h96q29 0 29 -29v-82q0 -29 -29 -29h-47q-34 -2 -46 -14q-16 -16 -16 -63v-101q0 -77 -69 -95l-7 -1l6 -2q70 -17 70 -95v-101q0 -48 16 -63q12 -12 46 -14h47q29 0 29 -29v-82q0 -29 -29 -29h-96
q-72 0 -114 40q-46 46 -46 112v115q0 43 -16 60q-17 16 -49 17h-32q-29 0 -29 29v82q0 29 29 29z" />
    <glyph glyph-name="asciitilde" unicode="~" horiz-adv-x="833" 
d="M656 314q17 -17 -3 -39q-74 -67 -143 -67q-55 0 -104 27q-43 25 -81 25q-25 0 -59 -21q-10 -6 -22 -4t-19 10l-51 51q-18 18 2 40q73 66 143 66q55 0 104 -27q44 -25 81 -25q25 0 59 21q10 6 22.5 4.5t19.5 -9.5z" />
    <glyph glyph-name="exclamdown" unicode="&#xa1;" horiz-adv-x="316" 
d="M183 295q18 0 22.5 -5t6.5 -24q28 -265 41 -384l2 -17q0 -12 -6.5 -16.5t-22.5 -4.5h-134q-17 0 -23.5 4t-6.5 17q0 1 2 18q13 121 42 383q2 20 6.5 24.5t21.5 4.5h49zM103 333q-29 0 -29 29v111q0 29 29 29h111q29 0 29 -29v-111q0 -29 -29 -29h-111z" />
    <glyph glyph-name="sterling" unicode="&#xa3;" horiz-adv-x="651" 
d="M582 140q29 0 29 -29v-82q0 -29 -29 -29h-519q-28 1 -28 29v82q0 29 29 29q13 0 22 3t19.5 11t17 27t7.5 48h-66q-29 0 -29 29v78q0 29 29 29h66v108q0 92 66.5 146t163.5 54q98 0 168.5 -57t70.5 -166q0 -15 -3.5 -18.5t-15.5 -3.5h-99q-28 0 -28 22q0 48 -21.5 65.5
t-66.5 17.5q-39 0 -58 -28.5t-19 -71.5v-68h130q29 0 29 -29v-78q0 -29 -29 -29h-130q0 -62 -33 -89h327z" />
    <glyph glyph-name="currency" unicode="&#xa4;" horiz-adv-x="674" 
d="M519 494q21 20 41 0l33 -33q21 -21 0 -41l-40 -41q37 -58 36.5 -126.5t-37.5 -127.5l41 -41q21 -20 0 -41l-32 -32q-21 -21 -41 0l-41 41q-58 -37 -127 -37t-127 36l-41 -40q-20 -21 -41 0l-33 33q-20 20 0 41l40 40q-36 58 -36 127t37 127l-40 41q-21 20 0 41l32 32
q21 21 41 0l41 -40q58 37 127 37t127 -36zM429 175q32 31 32 76.5t-32 77.5t-77.5 32.5t-77.5 -31.5t-31.5 -77.5t32.5 -77.5q31 -32 77 -32t77 32z" />
    <glyph glyph-name="yen" unicode="&#xa5;" horiz-adv-x="594" 
d="M567 658q13 0 17.5 -10t-1.5 -18l-115 -215h41q29 0 29 -29v-53q0 -29 -29 -29h-101l-31 -57v-2h132q29 0 29 -29v-53q0 -29 -29 -29h-132v-105q0 -29 -29 -29h-100q-29 0 -29 29v105h-139q-29 0 -29 29v53q0 29 29 29h139v2l-32 57h-107q-29 0 -29 29v53q0 29 29 29h45
l-120 215q-5 8 -1 18t17 10h116q18 0 27 -5.5t19 -24.5l116 -213h2l112 213q10 19 19 24.5t27 5.5h108z" />
    <glyph glyph-name="brokenbar" unicode="&#xa6;" horiz-adv-x="337" 
d="M208 612q29 0 29 -29v-210q0 -29 -29 -29h-79q-29 0 -29 29v210q0 29 29 29h79zM208 155q29 0 29 -29v-210q0 -29 -29 -29h-79q-29 0 -29 29v210q0 29 29 29h79z" />
    <glyph glyph-name="section" unicode="&#xa7;" horiz-adv-x="541" 
d="M496 267q0 -90 -65 -122q44 -42 44 -100q0 -81 -59 -124t-141 -43q-105 0 -155.5 44.5t-50.5 106.5q0 22 6 28.5t23 6.5h76q13 0 21 -5t9 -11l2 -5q4 -19 18 -31q18 -16 48 -16q25 0 40 13t15 35q0 16 -16.5 31t-34.5 24t-55 24q-40 17 -62.5 28.5t-53 32.5t-45.5 49
t-15 62q0 100 81 137q-41 36 -41 86q0 71 58.5 113t135.5 42q50 0 88 -15t57.5 -35t31.5 -43t14.5 -35t2.5 -16q0 -12 -1 -18t-7.5 -11t-20.5 -5h-75q-22 0 -34 27q-5 12 -12 19q-16 14 -42 14q-19 0 -33.5 -10t-14.5 -30q0 -12 10 -23t18 -15.5t26 -13.5l6 -2q3 -3 103 -49
q100 -45 100 -145zM329 222q16 0 27 10t11 24q0 27 -36 44l-89 43q-13 5 -23 5q-14 0 -24 -9.5t-11 -23.5t6.5 -22.5t26.5 -19.5l93 -47q8 -4 19 -4z" />
    <glyph glyph-name="dieresis" unicode="&#xa8;" horiz-adv-x="556" 
d="M209 658q29 0 29 -29v-65q0 -29 -29 -29h-110q-15 0 -22 6t-7 23v65q0 17 7 23t22 6h110zM456 658q29 0 29 -29v-65q0 -29 -29 -29h-110q-29 0 -29 29v65q0 29 29 29h110z" />
    <glyph glyph-name="guillemotleft" unicode="&#xab;" horiz-adv-x="473" 
d="M179 485q7 8 16.5 4t9.5 -16v-88q0 -18 -21 -35l-62 -51l62 -51q21 -17 21 -34v-89q0 -11 -9.5 -15t-16.5 4l-137 119q-12 11 -12 27v78q0 16 12 27zM413 385q0 -18 -21 -35l-62 -51l62 -51q21 -17 21 -34v-89q0 -11 -9.5 -15t-16.5 4l-137 119q-12 10 -12 27v78
q0 16 12 27l137 120q7 8 16.5 4t9.5 -16v-88z" />
    <glyph glyph-name="degree" unicode="&#xb0;" horiz-adv-x="392" 
d="M47 525q0 65 42.5 107t106.5 42t106.5 -42t42.5 -107t-42.5 -107t-106.5 -42t-106.5 42t-42.5 107zM125 525q0 -30 20.5 -50.5t50.5 -20.5t50.5 20.5t20.5 50.5t-20.5 50.5t-50.5 20.5t-50.5 -20.5t-20.5 -50.5z" />
    <glyph glyph-name="plusminus" unicode="&#xb1;" horiz-adv-x="561" 
d="M483 354q29 0 29 -29v-69q0 -29 -29 -29h-139v-100h139q29 0 29 -29v-69q0 -29 -29 -29h-405q-29 0 -29 29v69q0 29 29 29h139v100h-139q-29 0 -29 29v69q0 29 29 29h139v89q0 29 29 29h69q29 0 29 -29v-89h139z" />
    <glyph glyph-name="acute" unicode="&#xb4;" horiz-adv-x="556" 
d="M318 494h-98q-13 0 -16 10.5t3 17.5l67 108q11 18 19.5 23t25.5 5h127q17 0 22 -10.5t-3 -17.5l-100 -108q-2 -2 -7.5 -8t-8 -8t-7.5 -5.5t-11 -5t-13 -1.5z" />
    <glyph glyph-name="paragraph" unicode="&#xb6;" horiz-adv-x="833" 
d="M587 658q22 0 30.5 -6t8.5 -23v-600q0 -29 -29 -29h-69q-29 0 -29 29v512h-78v-512q0 -29 -29 -29h-69q-29 0 -29 29v259h-32q-54 0 -92.5 38.5t-38.5 92.5v108q0 52 41 91.5t89 39.5h326z" />
    <glyph glyph-name="periodcentered" unicode="&#xb7;" horiz-adv-x="294" 
d="M57 237q0 41 29 70t70 29t70 -29t29 -70t-29 -70t-70 -29t-70 29t-29 70z" />
    <glyph glyph-name="cedilla" unicode="&#xb8;" horiz-adv-x="500" 
d="M274 50h55q12 0 14.5 -9.5t-2.5 -15.5l-30 -69q44 -5 71 -31t29.5 -60.5t-9 -68.5t-45 -57t-78.5 -23h-67q-61 0 -96 37q-21 21 -12.5 47t32 32.5t47.5 -11.5q15 -13 31 -13h63q21 0 30 19t0.5 38t-30.5 20h-72q-26 0 -14 28q12 24 25.5 52t19.5 40t13.5 24.5t12.5 16.5
t12 4z" />
    <glyph glyph-name="guillemotright" unicode="&#xbb;" horiz-adv-x="473" 
d="M294 485l137 -120q12 -11 12 -27v-78q0 -16 -12 -27l-137 -119q-8 -8 -17 -4t-9 15v89q0 17 21 34l62 51l-62 51q-21 17 -21 35v88q0 12 9 16t17 -4zM60 385v88q0 12 9 16t17 -4l137 -120q12 -11 12 -27v-78q0 -16 -12 -27l-137 -119q-8 -8 -17 -4t-9 15v89q0 17 21 34
l62 51l-62 51q-21 17 -21 35z" />
    <glyph glyph-name="questiondown" unicode="&#xbf;" horiz-adv-x="538" 
d="M34 9q0 -89 67.5 -136t163.5 -47q61 0 107 19t71 50.5t38 63t16 64.5q0 18 -3 24.5t-14 6.5h-100q-11 0 -18 -5t-9 -10.5t-4 -15.5q-6 -24 -28 -43.5t-57 -19.5q-28 0 -48.5 15.5t-20.5 39.5q0 20 15.5 34.5t42 30t39.5 28.5q53 54 53 147q0 32 -32 32h-83
q-19 0 -25.5 -7t-6.5 -25q0 -26 -13.5 -49t-26.5 -34t-37 -27q-25 -18 -40.5 -32.5t-31 -43t-15.5 -60.5zM330 329h-111q-29 0 -29 29v111q0 29 29 29h111q29 0 29 -29v-111q0 -29 -29 -29z" />
    <glyph glyph-name="Agrave" unicode="&#xc0;" 
d="M640 28q12 -28 -17 -28h-105q-17 0 -24.5 6t-13.5 24l-28 79h-245l-28 -79q-6 -18 -13.5 -24t-24.5 -6h-105q-29 0 -17 28l222 599q12 31 41 31h96q28 0 41 -31zM255 249h150l-75 221zM373 716h-98q-7 0 -13 1.5t-11 5t-7.5 5.5t-8 8t-7.5 8l-100 108q-8 7 -3 17.5
t22 10.5h127q17 0 25.5 -5t19.5 -23l67 -108q6 -7 3 -17.5t-16 -10.5z" />
    <glyph glyph-name="Aacute" unicode="&#xc1;" 
d="M640 28q12 -28 -17 -28h-105q-17 0 -24.5 6t-13.5 24l-28 79h-245l-28 -79q-6 -18 -13.5 -24t-24.5 -6h-105q-29 0 -17 28l222 599q12 31 41 31h96q28 0 41 -31zM255 249h150l-75 221zM382 716h-98q-13 0 -16 10.5t3 17.5l67 108q11 18 19.5 23t25.5 5h127q17 0 22 -10.5
t-3 -17.5l-100 -108q-2 -2 -7.5 -8t-8 -8t-7.5 -5.5t-11 -5t-13 -1.5z" />
    <glyph glyph-name="Acircumflex" unicode="&#xc2;" 
d="M640 28q12 -28 -17 -28h-105q-17 0 -24.5 6t-13.5 24l-28 79h-245l-28 -79q-6 -18 -13.5 -24t-24.5 -6h-105q-29 0 -17 28l222 599q12 31 41 31h96q28 0 41 -31zM255 249h150l-75 221zM416 716q-17 0 -34 21l-51 62l-51 -62q-17 -21 -35 -21h-88q-12 0 -16 9t4 17
l120 137q11 12 27 12h78q16 0 27 -12l119 -137q8 -8 4 -17t-15 -9h-89z" />
    <glyph glyph-name="Atilde" unicode="&#xc3;" 
d="M640 28q12 -28 -17 -28h-105q-17 0 -24.5 6t-13.5 24l-28 79h-245l-28 -79q-6 -18 -13.5 -24t-24.5 -6h-105q-29 0 -17 28l222 599q12 31 41 31h96q28 0 41 -31zM255 249h150l-75 221zM512 847q12 0 12 -20v-1q0 -46 -30 -78t-78 -32q-32 0 -81 18q-59 21 -71 23
q-27 4 -35 -23q-5 -18 -25 -18h-46q-12 0 -12 20v1q0 46 30 78t78 32q32 0 81 -18q59 -21 71 -23q27 -4 35 23q5 18 25 18h46z" />
    <glyph glyph-name="Adieresis" unicode="&#xc4;" 
d="M258 839q29 0 29 -29v-65q0 -29 -29 -29h-110q-15 0 -22 6t-7 23v65q0 17 7 23t22 6h110zM505 839q29 0 29 -29v-65q0 -29 -29 -29h-110q-29 0 -29 29v65q0 29 29 29h110zM640 28q12 -28 -17 -28h-105q-17 0 -24.5 6t-13.5 24l-28 79h-245l-28 -79q-6 -18 -13.5 -24
t-24.5 -6h-105q-29 0 -17 28l222 599q12 31 41 31h96q28 0 41 -31zM255 249h150l-75 221z" />
    <glyph glyph-name="Aring" unicode="&#xc5;" 
d="M275 729q0 -21 16 -37t37 -16t36.5 16t15.5 37q0 20 -16 36t-36 16q-21 0 -37 -15.5t-16 -36.5zM255 249h150l-75 221zM640 28q12 -28 -17 -28h-105q-17 0 -24.5 6t-13.5 24l-28 79h-245l-28 -79q-6 -18 -13.5 -24t-24.5 -6h-105q-29 0 -17 28l222 599q5 12 10 19
q-36 33 -36 83q0 46 33.5 79t79.5 33t79 -33t33 -79q0 -49 -34 -81q7 -7 13 -21z" />
    <glyph glyph-name="AE" unicode="&#xc6;" horiz-adv-x="970" 
d="M895 140q29 0 29 -29v-82q0 -29 -29 -29h-424q-29 0 -29 24v85h-212l-38 -79q-16 -30 -45 -30h-117q-10 0 -14.5 9t0.5 19l284 591q20 40 53 40h525q29 0 29 -29v-82q0 -29 -29 -29h-286v-111h252q29 0 29 -29v-78q0 -29 -29 -29h-252v-132h303zM442 250v270h-32
l-122 -270h154z" />
    <glyph glyph-name="Ccedilla" unicode="&#xc7;" horiz-adv-x="632" 
d="M581 195q0 -76 -55.5 -130t-136.5 -72l-17 -39q44 -5 71 -31t29.5 -60.5t-9 -68.5t-45 -57t-78.5 -23h-67q-61 0 -96 37q-21 21 -12.5 47t32 32.5t47.5 -11.5q15 -13 31 -13h63q21 0 30 19t0.5 38t-30.5 20h-72q-26 0 -14 28q9 18 21.5 44t15.5 32q-95 9 -165.5 67
t-70.5 157v236q0 56 25 101t65 71.5t85.5 40t92.5 13.5q100 0 175.5 -50t84.5 -140q0 -18 -6.5 -23.5t-24.5 -5.5h-96q-9 0 -14.5 4.5t-9.5 14t-6 12.5q-31 48 -103 48q-50 0 -80.5 -26.5t-30.5 -73.5v-208q0 -47 30.5 -73.5t80.5 -26.5q94 0 105 68q2 13 3.5 19t7.5 11.5
t16 5.5h98q30 0 30 -34z" />
    <glyph glyph-name="Egrave" unicode="&#xc8;" horiz-adv-x="627" 
d="M551 140q29 0 29 -29v-82q0 -29 -29 -29h-448q-29 0 -29 29v600q0 29 29 29h431q29 0 29 -29v-83q0 -29 -29 -29h-302v-109h268q29 0 29 -29v-78q0 -29 -29 -29h-268v-132h319zM392 716h-98q-7 0 -13 1.5t-11 5t-7.5 5.5t-8 8t-7.5 8l-100 108q-8 7 -3 17.5t22 10.5h127
q17 0 25.5 -5t19.5 -23l67 -108q6 -7 3 -17.5t-16 -10.5z" />
    <glyph glyph-name="Eacute" unicode="&#xc9;" horiz-adv-x="627" 
d="M551 140q29 0 29 -29v-82q0 -29 -29 -29h-448q-29 0 -29 29v600q0 29 29 29h431q29 0 29 -29v-83q0 -29 -29 -29h-302v-109h268q29 0 29 -29v-78q0 -29 -29 -29h-268v-132h319zM352 716h-98q-13 0 -16 10.5t3 17.5l67 108q11 18 19.5 23t25.5 5h127q17 0 22 -10.5
t-3 -17.5l-100 -108q-2 -2 -7.5 -8t-8 -8t-7.5 -5.5t-11 -5t-13 -1.5z" />
    <glyph glyph-name="Ecircumflex" unicode="&#xca;" horiz-adv-x="627" 
d="M551 140q29 0 29 -29v-82q0 -29 -29 -29h-448q-29 0 -29 29v600q0 29 29 29h431q29 0 29 -29v-83q0 -29 -29 -29h-302v-109h268q29 0 29 -29v-78q0 -29 -29 -29h-268v-132h319zM412 716q-17 0 -34 21l-51 62l-51 -62q-17 -21 -35 -21h-88q-12 0 -16 9t4 17l120 137
q10 12 27 12h78q16 0 27 -12l119 -137q8 -8 4 -17t-15 -9h-89z" />
    <glyph glyph-name="Edieresis" unicode="&#xcb;" horiz-adv-x="627" 
d="M551 140q29 0 29 -29v-82q0 -29 -29 -29h-448q-29 0 -29 29v600q0 29 29 29h431q29 0 29 -29v-83q0 -29 -29 -29h-302v-109h268q29 0 29 -29v-78q0 -29 -29 -29h-268v-132h319zM252 839q29 0 29 -29v-65q0 -29 -29 -29h-110q-15 0 -22 6t-7 23v65q0 17 7 23t22 6h110z
M499 839q29 0 29 -29v-65q0 -29 -29 -29h-110q-29 0 -29 29v65q0 29 29 29h110z" />
    <glyph glyph-name="Igrave" unicode="&#xcc;" horiz-adv-x="488" 
d="M306 716h-98q-7 0 -13 1.5t-11 5t-7.5 5.5t-8 8t-7.5 8l-100 108q-8 7 -3 17.5t22 10.5h127q17 0 25.5 -5t19.5 -23l67 -108q6 -7 3 -17.5t-16 -10.5zM403 140q29 0 29 -29v-82q0 -29 -29 -29h-311q-29 0 -29 29v82q0 29 29 29h77v378h-61q-29 0 -29 29v82q0 29 29 29
h278q29 0 29 -29v-82q0 -29 -29 -29h-60v-378h77z" />
    <glyph glyph-name="Iacute" unicode="&#xcd;" horiz-adv-x="484" 
d="M396 140q29 0 29 -29v-82q0 -29 -29 -29h-311q-29 0 -29 29v82q0 29 29 29h77v378h-61q-29 0 -29 29v82q0 29 29 29h278q29 0 29 -29v-82q0 -29 -29 -29h-60v-378h77zM276 716h-98q-13 0 -16 10.5t3 17.5l67 108q11 18 19.5 23t25.5 5h127q17 0 22 -10.5t-3 -17.5
l-100 -108q-2 -2 -7.5 -8t-8 -8t-7.5 -5.5t-11 -5t-13 -1.5z" />
    <glyph glyph-name="Icircumflex" unicode="&#xce;" horiz-adv-x="494" 
d="M396 140q29 0 29 -29v-82q0 -29 -29 -29h-311q-29 0 -29 29v82q0 29 29 29h77v378h-61q-29 0 -29 29v82q0 29 29 29h278q29 0 29 -29v-82q0 -29 -29 -29h-60v-378h77zM333 716q-17 0 -34 21l-51 62l-51 -62q-17 -21 -35 -21h-88q-12 0 -16 9t4 17l120 137q10 12 27 12h78
q17 0 27 -12l119 -137q8 -8 4 -17t-15 -9h-89z" />
    <glyph glyph-name="Idieresis" unicode="&#xcf;" horiz-adv-x="527" 
d="M419 140q29 0 29 -29v-82q0 -29 -29 -29h-311q-29 0 -29 29v82q0 29 29 29h77v378h-61q-29 0 -29 29v82q0 29 29 29h278q29 0 29 -29v-82q0 -29 -29 -29h-60v-378h77zM195 839q29 0 29 -29v-65q0 -29 -29 -29h-110q-15 0 -22 6t-7 23v65q0 17 7 23t22 6h110zM442 839
q29 0 29 -29v-65q0 -29 -29 -29h-110q-29 0 -29 29v65q0 29 29 29h110z" />
    <glyph glyph-name="Eth" unicode="&#xd0;" horiz-adv-x="650" 
d="M327 658q64 0 123 -22.5t102.5 -76t43.5 -126.5v-208q0 -74 -43.5 -127t-102.5 -75.5t-123 -22.5h-224q-29 0 -29 29v226h-41q-29 0 -29 29v74q0 29 29 29h41v242q0 29 29 29h224zM288 387q29 0 29 -29v-74q0 -29 -29 -29h-57v-116h96q51 0 81.5 26.5t30.5 73.5v180
q0 47 -31 73.5t-81 26.5h-96v-132h57z" />
    <glyph glyph-name="Ntilde" unicode="&#xd1;" horiz-adv-x="682" 
d="M579 658q29 0 29 -29v-600q0 -29 -29 -29h-91q-12 0 -20.5 5.5t-12 9.5t-12.5 19l-212 343v-348q0 -29 -29 -29h-99q-29 0 -29 29v600q0 29 29 29h94q12 0 20.5 -5.5t12 -9.5t12.5 -19l212 -342v347q0 29 29 29h96zM531 847q12 0 12 -20v-1q0 -46 -30 -78t-78 -32
q-32 0 -81 18q-59 21 -71 23q-27 4 -35 -23q-5 -18 -25 -18h-46q-12 0 -12 20v1q0 46 30 78t78 32q31 0 81 -18q59 -21 71 -23q27 -4 35 23q5 18 25 18h46z" />
    <glyph glyph-name="Ograve" unicode="&#xd2;" horiz-adv-x="645" 
d="M416 716h-98q-7 0 -13 1.5t-11 5t-7.5 5.5t-8 8t-7.5 8l-100 108q-8 7 -3 17.5t22 10.5h127q17 0 25.5 -5t19.5 -23l67 -108q6 -7 3 -17.5t-16 -10.5zM591 447v-236q0 -57 -25 -101.5t-65 -71t-86 -40t-93 -13.5t-92.5 13.5t-85.5 40t-64.5 71t-24.5 101.5v236
q0 57 24.5 101.5t64.5 71t85.5 40t92.5 13.5t93 -13.5t86 -40t65 -71t25 -101.5zM434 225v208q0 47 -31 74t-81 27t-80.5 -27t-30.5 -74v-208q0 -47 30.5 -74t80.5 -27t81 27t31 74z" />
    <glyph glyph-name="Oacute" unicode="&#xd3;" horiz-adv-x="645" 
d="M591 447v-236q0 -57 -25 -101.5t-65 -71t-86 -40t-93 -13.5t-92.5 13.5t-85.5 40t-64.5 71t-24.5 101.5v236q0 57 24.5 101.5t64.5 71t85.5 40t92.5 13.5t93 -13.5t86 -40t65 -71t25 -101.5zM434 225v208q0 47 -31 74t-81 27t-80.5 -27t-30.5 -74v-208q0 -47 30.5 -74
t80.5 -27t81 27t31 74zM326 716h-98q-13 0 -16 10.5t3 17.5l67 108q11 18 19.5 23t25.5 5h127q17 0 22 -10.5t-3 -17.5l-100 -108q-2 -2 -7.5 -8t-8 -8t-7.5 -5.5t-11 -5t-13 -1.5z" />
    <glyph glyph-name="Ocircumflex" unicode="&#xd4;" horiz-adv-x="645" 
d="M591 447q0 57 -25 101.5t-65 71t-86 40t-93 13.5t-92.5 -13.5t-85.5 -40t-64.5 -71t-24.5 -101.5v-236q0 -57 24.5 -101.5t64.5 -71t85.5 -40t92.5 -13.5t93 13.5t86 40t65 71t25 101.5v236zM434 433v-208q0 -47 -31 -74t-81 -27t-80.5 27t-30.5 74v208q0 47 30.5 74
t80.5 27t81 -27t31 -74zM408 716q-17 0 -34 21l-51 62l-51 -62q-17 -21 -35 -21h-88q-12 0 -16 9t4 17l120 137q11 12 27 12h78q16 0 27 -12l119 -137q8 -8 4 -17t-15 -9h-89z" />
    <glyph glyph-name="Otilde" unicode="&#xd5;" horiz-adv-x="645" 
d="M591 447q0 57 -25 101.5t-65 71t-86 40t-93 13.5t-92.5 -13.5t-85.5 -40t-64.5 -71t-24.5 -101.5v-236q0 -57 24.5 -101.5t64.5 -71t85.5 -40t92.5 -13.5t93 13.5t86 40t65 71t25 101.5v236zM434 433v-208q0 -47 -31 -74t-81 -27t-80.5 27t-30.5 74v208q0 47 30.5 74
t80.5 27t81 -27t31 -74zM499 847q12 0 12 -20v-1q0 -46 -30 -78t-78 -32q-31 0 -81 18q-59 21 -71 23q-27 4 -35 -23q-5 -18 -25 -18h-46q-12 0 -12 20v1q0 46 30 78t78 32q31 0 81 -18q59 -21 71 -23q27 -4 35 23q5 18 25 18h46z" />
    <glyph glyph-name="Odieresis" unicode="&#xd6;" horiz-adv-x="645" 
d="M591 447q0 57 -25 101.5t-65 71t-86 40t-93 13.5t-92.5 -13.5t-85.5 -40t-64.5 -71t-24.5 -101.5v-236q0 -57 24.5 -101.5t64.5 -71t85.5 -40t92.5 -13.5t93 13.5t86 40t65 71t25 101.5v236zM434 433v-208q0 -47 -31 -74t-81 -27t-80.5 27t-30.5 74v208q0 47 30.5 74
t80.5 27t81 -27t31 -74zM253 839q29 0 29 -29v-65q0 -29 -29 -29h-110q-15 0 -22 6t-7 23v65q0 17 7 23t22 6h110zM500 839q29 0 29 -29v-65q0 -29 -29 -29h-110q-29 0 -29 29v65q0 29 29 29h110z" />
    <glyph glyph-name="multiply" unicode="&#xd7;" horiz-adv-x="538" 
d="M484 196q21 -21 0 -41l-55 -56q-20 -20 -41 0l-119 120l-120 -120q-20 -20 -41 0l-55 56q-20 20 0 41l120 119l-120 119q-20 21 0 41l55 56q21 20 41 0l120 -120l119 120q21 20 41 0l55 -56q21 -20 0 -41l-119 -119z" />
    <glyph glyph-name="Oslash" unicode="&#xd8;" horiz-adv-x="645" 
d="M591 447v-236q0 -57 -25 -101.5t-65 -71t-86 -40t-93 -13.5q-37 0 -76 9l-20 -53q-11 -27 -31 -27h-63q-17 0 -21.5 9t-1.5 19l37 95q-91 64 -91 174v236q0 57 24.5 101.5t64.5 71t85.5 40t92.5 13.5q33 0 71 -8l24 61q11 27 31 27h62q17 0 21.5 -9t1.5 -19l-40 -101
q98 -65 98 -177zM434 225v208q0 18 -4 30l-132 -338q7 -1 24 -1q50 0 81 27t31 74zM211 225q0 -14 1 -20l129 328q-3 0 -9.5 0.5t-9.5 0.5q-50 0 -80.5 -27t-30.5 -74v-208z" />
    <glyph glyph-name="Ugrave" unicode="&#xd9;" horiz-adv-x="661" 
d="M566 658q29 0 29 -29v-428q0 -56 -24.5 -99.5t-64 -68t-84.5 -36.5t-92 -12t-92 12t-84.5 36.5t-63.5 68t-24 99.5v428q0 29 29 29h99q29 0 29 -29v-406q0 -47 28.5 -73t78.5 -26t79 26t29 73v406q0 29 29 29h99zM416 716h-98q-7 0 -13 1.5t-11 5t-7.5 5.5t-8 8t-7.5 8
l-100 108q-8 7 -3 17.5t22 10.5h127q17 0 25.5 -5t19.5 -23l67 -108q6 -7 3 -17.5t-16 -10.5z" />
    <glyph glyph-name="Uacute" unicode="&#xda;" horiz-adv-x="661" 
d="M566 658q29 0 29 -29v-428q0 -56 -24.5 -99.5t-64 -68t-84.5 -36.5t-92 -12t-92 12t-84.5 36.5t-63.5 68t-24 99.5v428q0 29 29 29h99q29 0 29 -29v-406q0 -47 28.5 -73t78.5 -26t79 26t29 73v406q0 29 29 29h99zM338 716h-98q-13 0 -16 10.5t3 17.5l67 108
q11 18 19.5 23t25.5 5h127q17 0 22 -10.5t-3 -17.5l-100 -108q-2 -2 -7.5 -8t-8 -8t-7.5 -5.5t-11 -5t-13 -1.5z" />
    <glyph glyph-name="Ucircumflex" unicode="&#xdb;" horiz-adv-x="661" 
d="M566 658q29 0 29 -29v-428q0 -56 -24.5 -99.5t-64 -68t-84.5 -36.5t-92 -12t-92 12t-84.5 36.5t-63.5 68t-24 99.5v428q0 29 29 29h99q29 0 29 -29v-406q0 -47 28.5 -73t78.5 -26t79 26t29 73v406q0 29 29 29h99zM415 716q-17 0 -34 21l-51 62l-51 -62q-17 -21 -35 -21
h-88q-12 0 -16 9t4 17l120 137q11 12 27 12h78q17 0 27 -12l119 -137q8 -8 4 -17t-15 -9h-89z" />
    <glyph glyph-name="Udieresis" unicode="&#xdc;" horiz-adv-x="661" 
d="M262 839q29 0 29 -29v-65q0 -29 -29 -29h-110q-15 0 -22 6t-7 23v65q0 17 7 23t22 6h110zM509 839q29 0 29 -29v-65q0 -29 -29 -29h-110q-29 0 -29 29v65q0 29 29 29h110zM566 658q29 0 29 -29v-428q0 -56 -24.5 -99.5t-64 -68t-84.5 -36.5t-92 -12t-92 12t-84.5 36.5
t-63.5 68t-24 99.5v428q0 29 29 29h99q29 0 29 -29v-406q0 -47 28.5 -73t78.5 -26t79 26t29 73v406q0 29 29 29h99z" />
    <glyph glyph-name="Yacute" unicode="&#xdd;" horiz-adv-x="604" 
d="M575 658q13 0 17 -10t-1 -18l-206 -383v-218q0 -29 -29 -29h-100q-15 0 -22 6t-7 23v218l-214 383q-5 8 -1 18t17 10h115q18 0 27.5 -5.5t19.5 -24.5l117 -215l113 215q9 19 18.5 24.5t27.5 5.5h108zM341 716h-98q-13 0 -16 10.5t3 17.5l67 108q11 18 19.5 23t25.5 5h127
q17 0 22 -10.5t-3 -17.5l-100 -108q-2 -2 -7.5 -8t-8 -8t-7.5 -5.5t-11 -5t-13 -1.5z" />
    <glyph glyph-name="Thorn" unicode="&#xde;" horiz-adv-x="628" 
d="M328 563q126 0 194 -63t68 -169t-68.5 -168.5t-194.5 -62.5h-96v-71q0 -29 -29 -29h-99q-29 0 -29 29v602q0 29 29 29h99q29 0 29 -29v-68h97zM327 235q55 0 83.5 26.5t28.5 66.5q0 42 -28 68t-84 26h-96v-187h96z" />
    <glyph glyph-name="germandbls" unicode="&#xdf;" horiz-adv-x="658" 
d="M515 347q5 -2 13 -6.5t22.5 -17t26 -28.5t20.5 -42.5t9 -56.5q0 -93 -65.5 -143.5t-172.5 -50.5h-25h-31q-29 0 -29 29v84q0 29 29 29h61q79 0 79 67q0 32 -23 47.5t-58 15.5h-27q-29 0 -29 29v76q0 29 29 29h15q83 0 83 62q0 58 -83 58q-66 0 -97.5 -30.5t-31.5 -98.5
v-485q0 -29 -29 -29h-98q-29 0 -29 29v516q2 111 81.5 175t198.5 64q115 0 174.5 -53t59.5 -130q0 -35 -9.5 -63t-23.5 -43.5t-23.5 -22.5t-16.5 -10z" />
    <glyph glyph-name="agrave" unicode="&#xe0;" 
d="M640 28q12 -28 -17 -28h-105q-17 0 -24.5 6t-13.5 24l-28 79h-245l-28 -79q-6 -18 -13.5 -24t-24.5 -6h-105q-29 0 -17 28l222 599q12 31 41 31h96q28 0 41 -31zM255 249h150l-75 221zM387 744h-98q-7 0 -13 1.5t-11 5t-7.5 5.5t-8 8t-7.5 8l-100 108q-8 7 -3 17.5
t22 10.5h127q17 0 25.5 -5t19.5 -23l67 -108q6 -7 3 -17.5t-16 -10.5z" />
    <glyph glyph-name="aacute" unicode="&#xe1;" 
d="M640 28q12 -28 -17 -28h-105q-17 0 -24.5 6t-13.5 24l-28 79h-245l-28 -79q-6 -18 -13.5 -24t-24.5 -6h-105q-29 0 -17 28l222 599q12 31 41 31h96q28 0 41 -31zM255 249h150l-75 221zM366 740h-98q-13 0 -16 10.5t3 17.5l67 108q11 18 19.5 23t25.5 5h127q17 0 22 -10.5
t-3 -17.5l-100 -108q-2 -2 -7.5 -8t-8 -8t-7.5 -5.5t-11 -5t-13 -1.5z" />
    <glyph glyph-name="acircumflex" unicode="&#xe2;" 
d="M640 28q12 -28 -17 -28h-105q-17 0 -24.5 6t-13.5 24l-28 79h-245l-28 -79q-6 -18 -13.5 -24t-24.5 -6h-105q-29 0 -17 28l222 599q12 31 41 31h96q28 0 41 -31zM255 249h150l-75 221zM419 737q-17 0 -34 21l-51 62l-51 -62q-17 -21 -35 -21h-88q-12 0 -16 9.5t4 16.5
l120 137q10 12 27 12h78q17 0 27 -12l119 -137q8 -7 4 -16.5t-15 -9.5h-89z" />
    <glyph glyph-name="atilde" unicode="&#xe3;" 
d="M640 28q12 -28 -17 -28h-105q-17 0 -24.5 6t-13.5 24l-28 79h-245l-28 -79q-6 -18 -13.5 -24t-24.5 -6h-105q-29 0 -17 28l222 599q12 31 41 31h96q28 0 41 -31zM255 249h150l-75 221zM502 864q12 0 12 -20v-1q0 -46 -30 -78t-78 -32q-32 0 -81 18q-59 21 -71 23
q-27 4 -35 -23q-5 -18 -25 -18h-46q-12 0 -12 20v1q0 46 30 78t78 32q32 0 81 -18q59 -21 71 -23q27 -4 35 23q5 18 25 18h46z" />
    <glyph glyph-name="adieresis" unicode="&#xe4;" 
d="M640 28q12 -28 -17 -28h-105q-17 0 -24.5 6t-13.5 24l-28 79h-245l-28 -79q-6 -18 -13.5 -24t-24.5 -6h-105q-29 0 -17 28l222 599q12 31 41 31h96q28 0 41 -31zM255 249h150l-75 221zM263 866q29 0 29 -29v-65q0 -29 -29 -29h-110q-15 0 -22 6t-7 23v65q0 17 7 23t22 6
h110zM510 866q29 0 29 -29v-65q0 -29 -29 -29h-110q-29 0 -29 29v65q0 29 29 29h110z" />
    <glyph glyph-name="aring" unicode="&#xe5;" 
d="M255 249h150l-75 221zM277 744q0 -21 16 -37t37 -16t36.5 16t15.5 37q0 20 -16 36t-36 16q-21 0 -37 -15.5t-16 -36.5zM217 744q0 46 33.5 79t79.5 33t79 -33t33 -79q0 -55 -45 -90q12 -6 22 -27l221 -599q12 -28 -17 -28h-105q-17 0 -24.5 6t-13.5 24l-28 79h-245
l-28 -79q-6 -18 -13.5 -24t-24.5 -6h-105q-29 0 -17 28l222 599q8 20 21 27q-45 32 -45 90z" />
    <glyph glyph-name="ae" unicode="&#xe6;" horiz-adv-x="970" 
d="M895 140q29 0 29 -29v-82q0 -29 -29 -29h-424q-29 0 -29 24v85h-212l-38 -79q-16 -30 -45 -30h-117q-10 0 -14.5 9t0.5 19l284 591q20 40 53 40h525q29 0 29 -29v-82q0 -29 -29 -29h-286v-111h252q29 0 29 -29v-78q0 -29 -29 -29h-252v-132h303zM442 250v270h-32
l-122 -270h154z" />
    <glyph glyph-name="ccedilla" unicode="&#xe7;" horiz-adv-x="632" 
d="M581 195q0 -77 -57.5 -131t-140.5 -72l-15 -36q44 -5 71 -31t29.5 -60.5t-9 -68.5t-45 -57t-78.5 -23h-67q-61 0 -96 37q-21 21 -12.5 47t32 32.5t47.5 -11.5q15 -13 31 -13h63q21 0 30 19t0.5 38t-30.5 20h-72q-26 0 -14 28l36 74q-94 11 -162.5 68t-68.5 156v236
q0 56 25 101t65 71.5t85.5 40t92.5 13.5q100 0 175.5 -50t84.5 -140q0 -18 -6.5 -23.5t-24.5 -5.5h-96q-9 0 -14.5 4.5t-9.5 14t-6 12.5q-31 48 -103 48q-50 0 -80.5 -26.5t-30.5 -73.5v-208q0 -47 30.5 -73.5t80.5 -26.5q94 0 105 68q2 13 3.5 19t7.5 11.5t16 5.5h98
q30 0 30 -34z" />
    <glyph glyph-name="egrave" unicode="&#xe8;" horiz-adv-x="627" 
d="M551 140q29 0 29 -29v-82q0 -29 -29 -29h-448q-29 0 -29 29v600q0 29 29 29h431q29 0 29 -29v-83q0 -29 -29 -29h-302v-109h268q29 0 29 -29v-78q0 -29 -29 -29h-268v-132h319zM408 730h-98q-7 0 -13 1.5t-11 5t-7.5 5.5t-8 8t-7.5 8l-100 108q-8 7 -3 17.5t22 10.5h127
q17 0 25.5 -5t19.5 -23l67 -108q6 -7 3 -17.5t-16 -10.5z" />
    <glyph glyph-name="eacute" unicode="&#xe9;" horiz-adv-x="627" 
d="M551 140q29 0 29 -29v-82q0 -29 -29 -29h-448q-29 0 -29 29v600q0 29 29 29h431q29 0 29 -29v-83q0 -29 -29 -29h-302v-109h268q29 0 29 -29v-78q0 -29 -29 -29h-268v-132h319zM354 735h-98q-13 0 -16 10.5t3 17.5l67 108q11 18 19.5 23t25.5 5h127q17 0 22 -10.5
t-3 -17.5l-100 -108q-2 -2 -7.5 -8t-8 -8t-7.5 -5.5t-11 -5t-13 -1.5z" />
    <glyph glyph-name="ecircumflex" unicode="&#xea;" horiz-adv-x="627" 
d="M551 140q29 0 29 -29v-82q0 -29 -29 -29h-448q-29 0 -29 29v600q0 29 29 29h431q29 0 29 -29v-83q0 -29 -29 -29h-302v-109h268q29 0 29 -29v-78q0 -29 -29 -29h-268v-132h319zM405 736q-17 0 -34 21l-51 62l-51 -62q-17 -21 -35 -21h-88q-12 0 -16 9t4 17l120 137
q10 12 27 12h78q17 0 27 -12l119 -137q8 -8 4 -17t-15 -9h-89z" />
    <glyph glyph-name="edieresis" unicode="&#xeb;" horiz-adv-x="627" 
d="M551 140q29 0 29 -29v-82q0 -29 -29 -29h-448q-29 0 -29 29v600q0 29 29 29h431q29 0 29 -29v-83q0 -29 -29 -29h-302v-109h268q29 0 29 -29v-78q0 -29 -29 -29h-268v-132h319zM257 857q29 0 29 -29v-65q0 -29 -29 -29h-110q-15 0 -22 6t-7 23v65q0 17 7 23t22 6h110z
M504 857q29 0 29 -29v-65q0 -29 -29 -29h-110q-29 0 -29 29v65q0 29 29 29h110z" />
    <glyph glyph-name="igrave" unicode="&#xec;" horiz-adv-x="481" 
d="M382 137q29 0 29 -29v-79q0 -29 -29 -29h-283q-29 0 -29 29v79q0 29 29 29h63v382h-61q-29 0 -29 29v81q0 29 29 29h278q29 0 29 -29v-81q0 -29 -29 -29h-60v-382h63zM311 733h-98q-7 0 -13 1.5t-11 5t-7.5 5.5t-8 8t-7.5 8l-100 108q-8 7 -3 17.5t22 10.5h127
q17 0 25.5 -5t19.5 -23l67 -108q6 -7 3 -17.5t-16 -10.5z" />
    <glyph glyph-name="iacute" unicode="&#xed;" horiz-adv-x="481" 
d="M382 137q29 0 29 -29v-79q0 -29 -29 -29h-283q-29 0 -29 29v79q0 29 29 29h63v382h-61q-29 0 -29 29v81q0 29 29 29h278q29 0 29 -29v-81q0 -29 -29 -29h-60v-382h63zM268 727h-98q-13 0 -16 10.5t3 17.5l67 108q11 18 19.5 23t25.5 5h127q17 0 22 -10.5t-3 -17.5
l-100 -108q-2 -2 -7.5 -8t-8 -8t-7.5 -5.5t-11 -5t-13 -1.5z" />
    <glyph glyph-name="icircumflex" unicode="&#xee;" horiz-adv-x="481" 
d="M382 137q29 0 29 -29v-79q0 -29 -29 -29h-283q-29 0 -29 29v79q0 29 29 29h63v382h-61q-29 0 -29 29v81q0 29 29 29h278q29 0 29 -29v-81q0 -29 -29 -29h-60v-382h63zM326 735q-17 0 -34 21l-51 62l-51 -62q-17 -21 -35 -21h-88q-12 0 -16 9.5t4 16.5l120 137
q11 12 27 12h78q16 0 27 -12l119 -137q8 -7 4 -16.5t-15 -9.5h-89z" />
    <glyph glyph-name="idieresis" unicode="&#xef;" horiz-adv-x="481" 
d="M382 137q29 0 29 -29v-79q0 -29 -29 -29h-283q-29 0 -29 29v79q0 29 29 29h63v382h-61q-29 0 -29 29v81q0 29 29 29h278q29 0 29 -29v-81q0 -29 -29 -29h-60v-382h63zM176 857q29 0 29 -30v-66q0 -29 -29 -29h-108q-28 0 -28 29v66q0 17 7 23.5t21 6.5h108zM419 857
q29 0 29 -30v-66q0 -29 -29 -29h-108q-28 0 -28 29v66q0 17 7 23.5t21 6.5h108z" />
    <glyph glyph-name="eth" unicode="&#xf0;" horiz-adv-x="650" 
d="M327 658q64 0 123 -22.5t102.5 -76t43.5 -126.5v-208q0 -74 -43.5 -127t-102.5 -75.5t-123 -22.5h-224q-29 0 -29 29v226h-41q-29 0 -29 29v74q0 29 29 29h41v242q0 29 29 29h224zM288 387q29 0 29 -29v-74q0 -29 -29 -29h-57v-116h96q51 0 81.5 26.5t30.5 73.5v180
q0 47 -31 73.5t-81 26.5h-96v-132h57z" />
    <glyph glyph-name="ntilde" unicode="&#xf1;" horiz-adv-x="682" 
d="M579 658q29 0 29 -29v-600q0 -29 -29 -29h-91q-12 0 -20.5 5.5t-12 9.5t-12.5 19l-212 343v-348q0 -29 -29 -29h-99q-29 0 -29 29v600q0 29 29 29h94q12 0 20.5 -5.5t12 -9.5t12.5 -19l212 -342v347q0 29 29 29h96zM514 861q12 0 12 -20v-1q0 -46 -30 -78t-78 -32
q-31 0 -81 18q-59 21 -71 23q-27 4 -35 -23q-5 -18 -25 -18h-46q-12 0 -12 20v1q0 46 30 78t78 32q32 0 81 -18q59 -21 71 -23q27 -4 35 23q5 18 25 18h46z" />
    <glyph glyph-name="ograve" unicode="&#xf2;" horiz-adv-x="645" 
d="M591 447v-236q0 -57 -25 -101.5t-65 -71t-86 -40t-93 -13.5t-92.5 13.5t-85.5 40t-64.5 71t-24.5 101.5v236q0 57 24.5 101.5t64.5 71t85.5 40t92.5 13.5t93 -13.5t86 -40t65 -71t25 -101.5zM434 225v208q0 47 -31 74t-81 27t-80.5 -27t-30.5 -74v-208q0 -47 30.5 -74
t80.5 -27t81 27t31 74zM392 734h-98q-7 0 -13 1.5t-11 5t-7.5 5.5t-8 8t-7.5 8l-100 108q-8 7 -3 17.5t22 10.5h127q17 0 25.5 -5t19.5 -23l67 -108q6 -7 3 -17.5t-16 -10.5z" />
    <glyph glyph-name="oacute" unicode="&#xf3;" horiz-adv-x="645" 
d="M591 447v-236q0 -57 -25 -101.5t-65 -71t-86 -40t-93 -13.5t-92.5 13.5t-85.5 40t-64.5 71t-24.5 101.5v236q0 57 24.5 101.5t64.5 71t85.5 40t92.5 13.5t93 -13.5t86 -40t65 -71t25 -101.5zM434 225v208q0 47 -31 74t-81 27t-80.5 -27t-30.5 -74v-208q0 -47 30.5 -74
t80.5 -27t81 27t31 74zM350 738h-98q-13 0 -16 10.5t3 17.5l67 108q11 18 19.5 23t25.5 5h127q17 0 22 -10.5t-3 -17.5l-100 -108q-2 -2 -7.5 -8t-8 -8t-7.5 -5.5t-11 -5t-13 -1.5z" />
    <glyph glyph-name="ocircumflex" unicode="&#xf4;" horiz-adv-x="645" 
d="M591 447v-236q0 -57 -25 -101.5t-65 -71t-86 -40t-93 -13.5t-92.5 13.5t-85.5 40t-64.5 71t-24.5 101.5v236q0 57 24.5 101.5t64.5 71t85.5 40t92.5 13.5t93 -13.5t86 -40t65 -71t25 -101.5zM434 225v208q0 47 -31 74t-81 27t-80.5 -27t-30.5 -74v-208q0 -47 30.5 -74
t80.5 -27t81 27t31 74zM408 734q-17 0 -34 21l-51 62l-51 -62q-17 -21 -35 -21h-88q-12 0 -16 9t4 17l120 137q11 12 27 12h78q16 0 27 -12l119 -137q8 -8 4 -17t-15 -9h-89z" />
    <glyph glyph-name="otilde" unicode="&#xf5;" horiz-adv-x="645" 
d="M591 447v-236q0 -57 -25 -101.5t-65 -71t-86 -40t-93 -13.5t-92.5 13.5t-85.5 40t-64.5 71t-24.5 101.5v236q0 57 24.5 101.5t64.5 71t85.5 40t92.5 13.5t93 -13.5t86 -40t65 -71t25 -101.5zM434 225v208q0 47 -31 74t-81 27t-80.5 -27t-30.5 -74v-208q0 -47 30.5 -74
t80.5 -27t81 27t31 74zM501 865q12 0 12 -20v-1q0 -46 -30 -78t-78 -32q-31 0 -81 18q-59 21 -71 23q-27 4 -35 -23q-5 -18 -25 -18h-46q-12 0 -12 20v1q0 46 30 78t78 32q31 0 81 -18q59 -21 71 -23q27 -4 35 23q5 18 25 18h46z" />
    <glyph glyph-name="odieresis" unicode="&#xf6;" horiz-adv-x="645" 
d="M591 447v-236q0 -57 -25 -101.5t-65 -71t-86 -40t-93 -13.5t-92.5 13.5t-85.5 40t-64.5 71t-24.5 101.5v236q0 57 24.5 101.5t64.5 71t85.5 40t92.5 13.5t93 -13.5t86 -40t65 -71t25 -101.5zM434 225v208q0 47 -31 74t-81 27t-80.5 -27t-30.5 -74v-208q0 -47 30.5 -74
t80.5 -27t81 27t31 74zM254 860q29 0 29 -29v-65q0 -29 -29 -29h-110q-15 0 -22 6t-7 23v65q0 17 7 23t22 6h110zM501 860q29 0 29 -29v-65q0 -29 -29 -29h-110q-29 0 -29 29v65q0 29 29 29h110z" />
    <glyph glyph-name="divide" unicode="&#xf7;" horiz-adv-x="556" 
d="M275 567q37 0 63.5 -26.5t26.5 -63.5t-26.5 -63.5t-63.5 -26.5q-38 0 -64.5 26.5t-26.5 63.5t26.5 63.5t64.5 26.5zM275 166q37 0 63.5 -26t26.5 -64t-26.5 -64.5t-63.5 -26.5t-64 26.5t-27 64.5q0 37 26.5 63.5t64.5 26.5zM477 345q29 0 29 -29v-78q0 -29 -29 -29h-405
q-29 0 -29 29v78q0 29 29 29h405z" />
    <glyph glyph-name="oslash" unicode="&#xf8;" horiz-adv-x="645" 
d="M591 447v-236q0 -57 -25 -101.5t-65 -71t-86 -40t-93 -13.5q-37 0 -76 9l-20 -53q-11 -27 -31 -27h-63q-17 0 -21.5 9t-1.5 19l37 95q-91 64 -91 174v236q0 57 24.5 101.5t64.5 71t85.5 40t92.5 13.5q33 0 71 -8l24 61q11 27 31 27h62q17 0 21.5 -9t1.5 -19l-40 -101
q98 -65 98 -177zM434 225v208q0 18 -4 30l-132 -338q7 -1 24 -1q50 0 81 27t31 74zM211 225q0 -14 1 -20l129 328q-3 0 -9.5 0.5t-9.5 0.5q-50 0 -80.5 -27t-30.5 -74v-208z" />
    <glyph glyph-name="ugrave" unicode="&#xf9;" horiz-adv-x="661" 
d="M566 658q29 0 29 -29v-428q0 -56 -24.5 -99.5t-64 -68t-84.5 -36.5t-92 -12t-92 12t-84.5 36.5t-63.5 68t-24 99.5v428q0 29 29 29h99q29 0 29 -29v-406q0 -47 28.5 -73t78.5 -26t79 26t29 73v406q0 29 29 29h99zM403 734h-98q-7 0 -13 1.5t-11 5t-7.5 5.5t-8 8t-7.5 8
l-100 108q-8 7 -3 17.5t22 10.5h127q17 0 25.5 -5t19.5 -23l67 -108q6 -7 3 -17.5t-16 -10.5z" />
    <glyph glyph-name="uacute" unicode="&#xfa;" horiz-adv-x="661" 
d="M566 658q29 0 29 -29v-428q0 -56 -24.5 -99.5t-64 -68t-84.5 -36.5t-92 -12t-92 12t-84.5 36.5t-63.5 68t-24 99.5v428q0 29 29 29h99q29 0 29 -29v-406q0 -47 28.5 -73t78.5 -26t79 26t29 73v406q0 29 29 29h99zM360 728h-98q-13 0 -16 10.5t3 17.5l67 108
q11 18 19.5 23t25.5 5h127q17 0 22 -10.5t-3 -17.5l-100 -108q-2 -2 -7.5 -8t-8 -8t-7.5 -5.5t-11 -5t-13 -1.5z" />
    <glyph glyph-name="ucircumflex" unicode="&#xfb;" horiz-adv-x="661" 
d="M566 658q29 0 29 -29v-428q0 -56 -24.5 -99.5t-64 -68t-84.5 -36.5t-92 -12t-92 12t-84.5 36.5t-63.5 68t-24 99.5v428q0 29 29 29h99q29 0 29 -29v-406q0 -47 28.5 -73t78.5 -26t79 26t29 73v406q0 29 29 29h99zM422 737q-17 0 -34 21l-51 62l-51 -62q-17 -21 -35 -21
h-88q-12 0 -16 9.5t4 16.5l120 137q11 12 27 12h78q16 0 27 -12l119 -137q8 -7 4 -16.5t-15 -9.5h-89z" />
    <glyph glyph-name="udieresis" unicode="&#xfc;" horiz-adv-x="661" 
d="M566 658q29 0 29 -29v-428q0 -56 -24.5 -99.5t-64 -68t-84.5 -36.5t-92 -12t-92 12t-84.5 36.5t-63.5 68t-24 99.5v428q0 29 29 29h99q29 0 29 -29v-406q0 -47 28.5 -73t78.5 -26t79 26t29 73v406q0 29 29 29h99zM260 867q29 0 29 -29v-65q0 -29 -29 -29h-110
q-15 0 -22 6t-7 23v65q0 17 7 23t22 6h110zM507 867q29 0 29 -29v-65q0 -29 -29 -29h-110q-29 0 -29 29v65q0 29 29 29h110z" />
    <glyph glyph-name="yacute" unicode="&#xfd;" horiz-adv-x="604" 
d="M575 658q13 0 17 -10t-1 -18l-206 -383v-218q0 -29 -29 -29h-100q-15 0 -22 6t-7 23v218l-214 383q-5 8 -1 18t17 10h115q18 0 27.5 -5.5t19.5 -24.5l117 -215l113 215q9 19 18.5 24.5t27.5 5.5h108zM337 731h-98q-13 0 -16 10.5t3 17.5l67 108q11 18 19.5 23t25.5 5h127
q17 0 22 -10.5t-3 -17.5l-100 -108q-2 -2 -7.5 -8t-8 -8t-7.5 -5.5t-11 -5t-13 -1.5z" />
    <glyph glyph-name="thorn" unicode="&#xfe;" horiz-adv-x="628" 
d="M328 563q126 0 194 -63t68 -169t-68.5 -168.5t-194.5 -62.5h-96v-71q0 -29 -29 -29h-99q-29 0 -29 29v602q0 29 29 29h99q29 0 29 -29v-68h97zM327 235q55 0 83.5 26.5t28.5 66.5q0 42 -28 68t-84 26h-96v-187h96z" />
    <glyph glyph-name="ydieresis" unicode="&#xff;" horiz-adv-x="833" 
 />
    <glyph glyph-name="OE" unicode="&#x152;" horiz-adv-x="923" 
d="M848 140q29 0 29 -29v-82q0 -29 -29 -29h-536q-46 1 -91 15t-84.5 40.5t-64 71t-24.5 100.5v204q0 74 42.5 127.5t100.5 76.5t121 23h520q28 0 28 -29v-82q0 -29 -28 -29h-255v-111h220q29 0 29 -29v-78q0 -29 -29 -29h-220v-131h271zM429 135v389h-112q-49 0 -80 -33
t-31 -82v-160q0 -49 31 -81.5t80 -32.5h112z" />
    <glyph glyph-name="oe" unicode="&#x153;" horiz-adv-x="923" 
d="M848 140q29 0 29 -29v-82q0 -29 -29 -29h-536q-46 1 -91 15t-84.5 40.5t-64 71t-24.5 100.5v204q0 74 42.5 127.5t100.5 76.5t121 23h520q28 0 28 -29v-82q0 -29 -28 -29h-255v-111h220q29 0 29 -29v-78q0 -29 -29 -29h-220v-131h271zM429 135v389h-112q-49 0 -80 -33
t-31 -82v-160q0 -49 31 -81.5t80 -32.5h112z" />
    <glyph glyph-name="Scaron" unicode="&#x160;" horiz-adv-x="605" 
d="M384 382q33 -10 47.5 -15t45 -21t45 -33t27.5 -48t13 -70q0 -103 -73 -156.5t-193 -53.5q-65 0 -125 23t-102 73t-42 116q0 17 6 22.5t23 5.5h97q19 0 27 -5t9 -23q2 -21 19 -41q28 -33 98 -33q46 0 72 14.5t26 53.5q0 16 -9 27.5t-28 19t-38 12t-49 12t-50 13.5
q-45 14 -74 27.5t-59.5 36t-45.5 56t-15 79.5q0 92 70.5 143.5t172.5 55.5q106 0 186 -49t80 -141q0 -18 -5.5 -23t-23.5 -5h-98q-3 0 -6 0.5t-5.5 1.5t-4.5 3t-3 3.5t-2.5 4.5t-2 4.5t-2 5t-1.5 4.5q-6 15 -21 30q-28 27 -85 27q-32 0 -60 -14t-28 -44q0 -27 34 -46.5
t92 -35.5t61 -17zM202 908q18 0 35 -21l51 -62l51 62q17 21 34 21h89q11 0 15 -9t-4 -17l-119 -137q-10 -12 -27 -12h-78q-17 0 -27 12l-120 137q-8 8 -4 17t16 9h88z" />
    <glyph glyph-name="scaron" unicode="&#x161;" horiz-adv-x="605" 
d="M384 382q33 -10 47.5 -15t45 -21t45 -33t27.5 -48t13 -70q0 -103 -73 -156.5t-193 -53.5q-65 0 -125 23t-102 73t-42 116q0 17 6 22.5t23 5.5h97q19 0 27 -5t9 -23q2 -21 19 -41q28 -33 98 -33q46 0 72 14.5t26 53.5q0 16 -9 27.5t-28 19t-38 12t-49 12t-50 13.5
q-45 14 -74 27.5t-59.5 36t-45.5 56t-15 79.5q0 92 70.5 143.5t172.5 55.5q106 0 186 -49t80 -141q0 -18 -5.5 -23t-23.5 -5h-98q-3 0 -6 0.5t-5.5 1.5t-4.5 3t-3 3.5t-2.5 4.5t-2 4.5t-2 5t-1.5 4.5q-6 15 -21 30q-28 27 -85 27q-32 0 -60 -14t-28 -44q0 -27 34 -46.5
t92 -35.5t61 -17zM201 921q18 0 35 -21l51 -62l51 62q17 21 34 21h89q11 0 15 -9.5t-4 -16.5l-119 -137q-11 -12 -27 -12h-78q-16 0 -27 12l-120 137q-8 7 -4 16.5t16 9.5h88z" />
    <glyph glyph-name="Ydieresis" unicode="&#x178;" horiz-adv-x="613" 
d="M124 735q-29 0 -29 29v65q0 29 29 29h110q29 0 29 -29v-65q0 -29 -29 -29h-110zM372 735q-29 0 -29 29v65q0 29 29 29h110q29 0 29 -29v-65q0 -29 -29 -29h-110zM576 658q13 0 17.5 -10t-1.5 -18l-206 -383v-218q0 -29 -29 -29h-100q-29 0 -29 29v218l-214 383
q-5 8 -1 18t17 10h115q18 0 27.5 -5.5t19.5 -24.5l117 -215l113 215q10 19 19 24.5t27 5.5h108z" />
    <glyph glyph-name="Zcaron" unicode="&#x17d;" horiz-adv-x="567" 
d="M502 140q29 0 29 -29v-82q0 -29 -29 -29h-436q-19 0 -24.5 5.5t-5.5 23.5v78q0 10 3 19.5t7 13.5l3 5l270 373h-245q-29 0 -29 29v82q0 29 29 29h402q29 0 29 -29v-78q0 -22 -13 -39l-268 -372h278zM202 911q18 0 35 -21l51 -62l51 62q17 21 34 21h89q11 0 15 -9.5
t-4 -16.5l-119 -137q-10 -12 -27 -12h-78q-17 0 -27 12l-120 137q-8 7 -4 16.5t16 9.5h88z" />
    <glyph glyph-name="zcaron" unicode="&#x17e;" horiz-adv-x="567" 
d="M502 140q29 0 29 -29v-82q0 -29 -29 -29h-436q-19 0 -24.5 5.5t-5.5 23.5v78q0 10 3 19.5t7 13.5l3 5l270 373h-245q-29 0 -29 29v82q0 29 29 29h402q29 0 29 -29v-78q0 -22 -13 -39l-268 -372h278zM204 913q18 0 35 -21l51 -62l51 62q17 21 34 21h89q11 0 15 -9.5
t-4 -16.5l-119 -137q-10 -12 -27 -12h-78q-17 0 -27 12l-120 137q-8 7 -4 16.5t16 9.5h88z" />
    <glyph glyph-name="circumflex" unicode="&#x2c6;" horiz-adv-x="500" 
d="M333 483q-17 0 -34 21l-51 62l-51 -62q-17 -21 -35 -21h-88q-12 0 -16 9.5t4 16.5l120 137q10 12 27 12h78q17 0 27 -12l119 -137q8 -7 4 -16.5t-15 -9.5h-89z" />
    <glyph glyph-name="caron" unicode="&#x2c7;" horiz-adv-x="440" 
d="M128 665q18 0 35 -21l51 -62l51 62q17 21 34 21h89q11 0 15 -9.5t-4 -16.5l-119 -137q-10 -12 -27 -12h-78q-17 0 -27 12l-120 137q-8 7 -4 16.5t16 9.5h88z" />
    <glyph glyph-name="breve" unicode="&#x2d8;" horiz-adv-x="500" 
d="M408 658q9 0 9 -20q-9 -60 -54 -91t-110 -32q-65 1 -110.5 32t-53.5 91q-1 2 -1 6t2 9t8 5h50q9 0 16 -16q9 -23 34.5 -36t54.5 -13q28 0 53.5 13t35.5 36q7 16 16 16h50z" />
    <glyph glyph-name="dotaccent" unicode="&#x2d9;" horiz-adv-x="500" 
d="M320 658q29 0 29 -29v-65q0 -29 -29 -29h-110q-15 0 -22 6t-7 23v65q0 17 7 23t22 6h110z" />
    <glyph glyph-name="ring" unicode="&#x2da;" horiz-adv-x="500" 
d="M112 562q0 46 33.5 79t79.5 33t79 -33t33 -79t-33 -79.5t-79 -33.5q-47 0 -80 33.5t-33 79.5zM172 562q0 -21 16 -37t37 -16t36.5 16t15.5 37q0 20 -16 36t-36 16q-21 0 -37 -15.5t-16 -36.5z" />
    <glyph glyph-name="tilde" unicode="&#x2dc;" horiz-adv-x="476" 
d="M448 658q12 0 12 -20v-1q0 -46 -30 -78t-78 -32q-32 0 -81 18q-59 21 -71 23q-27 4 -35 -23q-5 -18 -25 -18h-46q-12 0 -12 20v1q0 46 30 78t78 32q32 0 81 -18q59 -21 71 -23q27 -4 35 23q5 18 25 18h46z" />
    <glyph glyph-name="hungarumlaut" unicode="&#x2dd;" horiz-adv-x="500" 
d="M148 494h-98q-13 0 -16 10.5t3 17.5l67 108q11 18 19.5 23t25.5 5h127q17 0 22 -10.5t-3 -17.5l-100 -108q-2 -2 -7.5 -8t-8 -8t-7.5 -5.5t-11 -5t-13 -1.5zM419 494h-98q-13 0 -16 10.5t3 17.5l67 108q11 18 19.5 23t25.5 5h127q17 0 22 -10.5t-3 -17.5l-100 -108
q-2 -2 -7.5 -8t-8 -8t-7.5 -5.5t-11 -5t-13 -1.5z" />
    <glyph glyph-name="bga" unicode="&#x410;" 
d="M640 28q12 -28 -17 -28h-105q-17 0 -24.5 6t-13.5 24l-28 79h-245l-28 -79q-6 -18 -13.5 -24t-24.5 -6h-105q-29 0 -17 28l222 599q12 31 41 31h96q28 0 41 -31zM255 249h150l-75 221z" />
    <glyph glyph-name="afii10018" unicode="&#x411;" horiz-adv-x="669" 
d="M103 659h429q29 0 29 -29v-77q0 -29 -29 -29h-301v-109h130q134 0 197.5 -49t63.5 -155q0 -211 -263 -211h-256q-29 0 -29 29v601q0 29 29 29zM361 284h-130v-146h127q111 0 111 74q0 38 -25 55t-83 17z" />
    <glyph glyph-name="afii10019" unicode="&#x412;" horiz-adv-x="687" 
d="M543 341q5 -2 13 -6t22.5 -16.5t26.5 -28t21 -42t9 -56.5q0 -93 -65 -142.5t-173 -49.5h-294q-29 0 -29 29v601q0 29 29 29h280q115 0 174 -52t59 -129q0 -35 -9.5 -62.5t-24 -43t-23.5 -22t-16 -9.5zM399 142q77 0 77 65q0 61 -83 61h-23q-29 0 -29 29v76q0 29 29 29h13
q83 0 83 60q0 32 -20.5 44t-62.5 12h-152v-376h168z" />
    <glyph glyph-name="afii10020" unicode="&#x413;" horiz-adv-x="540" 
d="M475 522h-244v-493q0 -29 -29 -29h-99q-29 0 -29 29v601q0 29 29 29h372q29 0 29 -29v-79q0 -29 -29 -29z" />
    <glyph glyph-name="afii10021" unicode="&#x414;" horiz-adv-x="704" 
d="M534 -52v63h-366v-63q0 -29 -29 -29h-83q-29 0 -29 29v172q0 29 29 29q38 0 51 16.5t16 49.5l32 414q0 29 29 29h384q29 0 29 -29v-480h48q29 0 29 -29v-172q0 -29 -29 -29h-82q-29 0 -29 29zM277 207q-3 -53 -40 -65h208v381h-143z" />
    <glyph glyph-name="afii10022" unicode="&#x415;" horiz-adv-x="627" 
d="M551 140q29 0 29 -29v-82q0 -29 -29 -29h-448q-29 0 -29 29v600q0 29 29 29h431q29 0 29 -29v-83q0 -29 -29 -29h-302v-109h268q29 0 29 -29v-78q0 -29 -29 -29h-268v-132h319z" />
    <glyph glyph-name="afii10024" unicode="&#x416;" horiz-adv-x="941" 
d="M890 658q13 0 15.5 -10.5t-5.5 -17.5l-199 -240l219 -358q7 -10 2.5 -21t-17.5 -11h-119q-30 0 -50 32q-88 154 -142 244l-46 -58v-189q0 -29 -28 -29h-99q-15 0 -22 6t-7 23v190l-45 57l-142 -244q-20 -32 -50 -32h-119q-13 0 -17.5 11t2.5 21l219 358l-199 240
q-8 7 -5.5 17.5t15.5 10.5h127q18 0 26.5 -4t23.5 -20l164 -220v215q0 17 7 23t22 6h99q28 0 28 -29v-217l165 222q15 16 23.5 20t26.5 4h127z" />
    <glyph glyph-name="afii10025" unicode="&#x417;" horiz-adv-x="574" 
d="M193 303v66q0 23 27 23h45q92 0 92 65q0 43 -26.5 61.5t-64.5 18.5q-77 0 -94 -56q-3 -13 -7.5 -17t-17.5 -4h-87q-17 0 -22.5 5t-5.5 24q0 79 66 131t162 52q108 -1 177 -55t69 -157q0 -45 -24 -80.5t-56 -44.5q43 -16 71 -53t28 -85q0 -111 -70.5 -161t-183.5 -51
q-96 0 -168 55t-72 134q0 19 5.5 24.5t22.5 5.5h89q12 0 17 -4.5t8 -17.5q10 -32 41 -45.5t63 -13.5q37 0 65.5 19t28.5 56q0 78 -106 78h-47q-15 0 -20 6t-5 21z" />
    <glyph glyph-name="afii10026" unicode="&#x418;" horiz-adv-x="682" 
d="M104 658h96q29 0 29 -29v-347l212 342q9 15 12.5 19t12 9.5t20.5 5.5h94q29 0 29 -29v-600q0 -29 -29 -29h-99q-29 0 -29 29v348l-212 -343q-9 -15 -12.5 -19t-12 -9.5t-20.5 -5.5h-91q-29 0 -29 29v600q0 29 29 29z" />
    <glyph glyph-name="afii10027" unicode="&#x419;" horiz-adv-x="682" 
d="M104 658q-29 0 -29 -29v-600q0 -29 29 -29h91q12 0 20.5 5.5t12 9.5t12.5 19l212 343v-348q0 -29 29 -29h99q29 0 29 29v600q0 29 -29 29h-94q-12 0 -20.5 -5.5t-12 -9.5t-12.5 -19l-212 -342v347q0 29 -29 29h-96zM510 871q9 0 9 -20q-9 -60 -54 -91t-110 -32
q-65 1 -110.5 32t-53.5 91q-1 2 -1 6t2 9t8 5h50q9 0 16 -16q9 -23 34.5 -36t54.5 -13q28 0 53.5 13t35.5 36q7 16 16 16h50z" />
    <glyph glyph-name="afii10028" unicode="&#x41a;" horiz-adv-x="654" 
d="M622 658q13 0 15.5 -10.5t-5.5 -17.5l-225 -244l215 -354q7 -10 2.5 -21t-17.5 -11h-122q-30 0 -50 32q-89 150 -143 240l-62 -65v-178q0 -29 -28 -29h-99q-15 0 -22 6t-7 23v600q0 17 7 23t22 6h99q28 0 28 -29v-223l207 228q15 16 23.5 20t26.5 4h135z" />
    <glyph glyph-name="afii10029" unicode="&#x41b;" horiz-adv-x="668" 
d="M101 193l36 436q0 29 29 29h399q29 0 29 -29v-600q0 -29 -29 -29h-99q-29 0 -29 29v489h-160l-22 -326q-8 -122 -47 -160t-155 -36q-19 0 -24.5 5.5t-5.5 22.5v75q0 27 22 27q32 0 42.5 16t13.5 51z" />
    <glyph glyph-name="afii10030" unicode="&#x41c;" horiz-adv-x="767" 
d="M664 659q29 0 29 -29v-601q0 -29 -29 -29h-96q-29 0 -29 29v339l-100 -175q-13 -21 -29 -21h-50q-15 0 -28 21l-101 175v-339q0 -29 -29 -29h-99q-29 0 -29 29v601q0 29 29 29h99q12 0 20.5 -4t12 -8t8 -12.5t5.5 -9.5l137 -246l138 246q1 1 4 7.5t5.5 10t7 8t12 6.5
t16.5 2h96z" />
    <glyph glyph-name="afii10031" unicode="&#x41d;" horiz-adv-x="685" 
d="M582 658q29 0 29 -29v-600q0 -29 -29 -29h-99q-29 0 -29 29v226h-223v-226q0 -17 -7 -23t-22 -6h-99q-29 0 -29 29v600q0 29 29 29h99q15 0 22 -6t7 -23v-226h223v226q0 29 29 29h99z" />
    <glyph glyph-name="afii10032" unicode="&#x41e;" horiz-adv-x="645" 
d="M591 447v-236q0 -57 -25 -101.5t-65 -71t-86 -40t-93 -13.5t-92.5 13.5t-85.5 40t-64.5 71t-24.5 101.5v236q0 57 24.5 101.5t64.5 71t85.5 40t92.5 13.5t93 -13.5t86 -40t65 -71t25 -101.5zM434 225v208q0 47 -31 74t-81 27t-80.5 -27t-30.5 -74v-208q0 -47 30.5 -74
t80.5 -27t81 27t31 74z" />
    <glyph glyph-name="afii10033" unicode="&#x41f;" horiz-adv-x="685" 
d="M582 658q29 0 29 -29v-600q0 -29 -29 -29h-99q-29 0 -29 29v489h-223v-489q0 -17 -7 -23t-22 -6h-99q-29 0 -29 29v600q0 29 29 29h479z" />
    <glyph glyph-name="afii10034" unicode="&#x420;" horiz-adv-x="628" 
d="M328 658q126 0 194 -63t68 -169t-68.5 -168.5t-194.5 -62.5h-96v-166q0 -29 -29 -29h-99q-29 0 -29 29v600q0 29 29 29h225zM327 330q55 0 83.5 26.5t28.5 66.5q0 42 -28 68t-84 26h-96v-187h96z" />
    <glyph glyph-name="afii10035" unicode="&#x421;" horiz-adv-x="632" 
d="M581 195q0 -92 -80.5 -151t-179.5 -59q-47 0 -92.5 13.5t-85.5 40t-65 71.5t-25 101v236q0 56 25 101t65 71.5t85.5 40t92.5 13.5q100 0 175.5 -50t84.5 -140q0 -18 -6.5 -23.5t-24.5 -5.5h-96q-9 0 -14.5 4.5t-9.5 14t-6 12.5q-31 48 -103 48q-50 0 -80.5 -26.5
t-30.5 -73.5v-208q0 -47 30.5 -73.5t80.5 -26.5q94 0 105 68q2 13 3.5 19t7.5 11.5t16 5.5h98q30 0 30 -34z" />
    <glyph glyph-name="afii10036" unicode="&#x422;" horiz-adv-x="574" 
d="M519 658q29 0 29 -29v-83q0 -29 -29 -29h-153v-488q0 -29 -29 -29h-99q-29 0 -29 29v488h-154q-29 0 -29 29v83q0 29 29 29h464z" />
    <glyph glyph-name="afii10037" unicode="&#x423;" horiz-adv-x="653" 
d="M616 659q13 0 17.5 -9t0.5 -20l-291 -602q-9 -18 -17.5 -23t-26.5 -5h-111q-11 0 -14.5 11t2.5 20l75 153l-223 446q-4 11 0.5 20t17.5 9h119q17 0 24.5 -5t14.5 -21l70 -143l60 -137l61 136l68 140q8 17 16 23.5t26 6.5h111z" />
    <glyph glyph-name="afii10038" unicode="&#x424;" horiz-adv-x="804" 
d="M482 78v-51q0 -29 -29 -29h-99q-29 0 -29 29v51h-36q-257 0 -257 227v46q0 231 257 231h36v51q0 29 29 29h99q29 0 29 -31v-49h36q257 0 257 -231v-46q0 -227 -257 -227h-36zM479 209h39q102 0 102 97v45q0 48 -26.5 74.5t-75.5 26.5h-39v-243zM187 351v-45
q0 -97 102 -97h40v243h-40q-49 0 -75.5 -26.5t-26.5 -74.5z" />
    <glyph glyph-name="afii10039" unicode="&#x425;" horiz-adv-x="586" 
d="M386 337l177 -306q6 -9 2.5 -20t-14.5 -11h-114q-18 0 -26 4.5t-18 23.5l-99 178l-100 -178q-9 -18 -17.5 -23t-26.5 -5h-114q-11 0 -14.5 11t2.5 20l178 306l-181 293q-5 8 -1 18t16 10h118q14 0 22 -6t18 -23l100 -161l99 161q11 17 19 23t22 6h117q12 0 16.5 -10
t-1.5 -18z" />
    <glyph glyph-name="afii10040" unicode="&#x426;" horiz-adv-x="704" 
d="M102 0q-29 0 -29 29v600q0 29 29 29h99q29 0 29 -29v-498h209v498q0 17 7 23t22 6h99q29 0 29 -29v-491h48q29 0 29 -29v-172q0 -29 -29 -29h-82q-29 0 -29 29v63h-431z" />
    <glyph glyph-name="afii10041" unicode="&#x427;" horiz-adv-x="661" 
d="M206 449q0 -88 97 -88h127v268q0 29 29 29h99q29 0 29 -29v-600q0 -29 -29 -29h-99q-29 0 -29 29v193h-129q-53 0 -94.5 9.5t-78.5 33t-57.5 70t-20.5 113.5v182q0 29 29 29h98q29 0 29 -29v-181z" />
    <glyph glyph-name="afii10042" unicode="&#x428;" horiz-adv-x="1006" 
d="M103 0q-29 0 -29 29v601q0 29 29 29h99q29 0 29 -29v-493h193v493q0 29 29 29h102q15 0 21 -6.5t6 -22.5v-493h193v493q0 17 7 23t22 6h99q29 0 29 -29v-601q0 -29 -29 -29h-800z" />
    <glyph glyph-name="afii10043" unicode="&#x429;" horiz-adv-x="1041" 
d="M775 137v493q0 17 7 23t22 6h99q29 0 29 -29v-492h47q29 0 29 -29v-172q0 -29 -29 -29h-82q-29 0 -29 29v63h-765q-29 0 -29 29v601q0 29 29 29h99q29 0 29 -29v-493h193v493q0 29 29 29h102q15 0 21 -6.5t6 -22.5v-493h193z" />
    <glyph glyph-name="afii10044" unicode="&#x42a;" horiz-adv-x="698" 
d="M384 0h-225q-29 0 -29 29v487h-68q-29 0 -29 29v85q0 29 29 29h196q29 0 29 -29v-185h96q128 0 195.5 -57t67.5 -164q0 -105 -67.5 -164.5t-194.5 -59.5zM383 310h-96v-169h96q112 0 112 84q0 39 -28 62t-84 23z" />
    <glyph glyph-name="afii10045" unicode="&#x42b;" horiz-adv-x="916" 
d="M328 0h-225q-29 0 -29 29v601q0 29 29 29h99q29 0 29 -29v-185h96q128 0 195.5 -57t67.5 -164q0 -105 -67.5 -164.5t-194.5 -59.5zM327 310h-96v-169h96q112 0 112 84q0 39 -28 62t-84 23zM842 630v-601q0 -29 -29 -29h-99q-29 0 -29 29v601q0 29 29 29h99q29 0 29 -29z
" />
    <glyph glyph-name="afii10046" unicode="&#x42c;" horiz-adv-x="642" 
d="M328 0h-225q-29 0 -29 29v601q0 29 29 29h99q29 0 29 -29v-185h96q128 0 195.5 -57t67.5 -164q0 -105 -67.5 -164.5t-194.5 -59.5zM327 310h-96v-169h96q112 0 112 84q0 39 -28 62t-84 23z" />
    <glyph glyph-name="afii10047" unicode="&#x42d;" horiz-adv-x="632" 
d="M45 195q0 34 30 34h98q15 0 19.5 -8.5t7.5 -27.5q11 -68 105 -68q50 0 80.5 26.5t30.5 73.5v47h-161q-29 0 -29 29v75q0 29 29 29h161v28q0 47 -30.5 73.5t-80.5 26.5q-72 0 -103 -48q-2 -3 -6 -12.5t-9.5 -14t-14.5 -4.5h-96q-18 0 -24.5 5.5t-6.5 23.5q9 90 84.5 140
t175.5 50q47 0 92.5 -13.5t85.5 -40t65 -71.5t25 -101v-236q0 -56 -25 -101t-65 -71.5t-85.5 -40t-92.5 -13.5q-99 0 -179.5 59t-80.5 151z" />
    <glyph glyph-name="afii10048" unicode="&#x42e;" horiz-adv-x="941" 
d="M883 447v-236q0 -57 -24.5 -101.5t-64 -71t-84.5 -40t-92 -13.5q-64 0 -121.5 22.5t-99.5 75.5t-42 128v48h-124v-230q0 -17 -7 -23t-22 -6h-99q-29 0 -29 29v600q0 29 29 29h99q15 0 22 -6t7 -23v-231h124v49q0 75 42 128t99.5 75.5t121.5 22.5q47 0 92 -13.5t84.5 -40
t64 -71t24.5 -101.5zM726 225v208q0 48 -29 74.5t-79 26.5q-49 0 -78 -26.5t-29 -74.5v-208q0 -48 29 -74.5t78 -26.5q50 0 79 26.5t29 74.5z" />
    <glyph glyph-name="afii10049" unicode="&#x42f;" horiz-adv-x="656" 
d="M43 32l141 205q-53 18 -96 72t-43 127q0 101 58 157q34 34 77.5 49t121.5 15h252q28 0 28 -29v-599q0 -29 -28 -29h-99q-29 0 -29 29v488h-133q-40 0 -66 -23.5t-26 -61.5q0 -34 28.5 -57.5t66.5 -23.5h20q29 0 29 -29v-80q0 -36 -11 -51l-108 -161q-20 -30 -50 -30h-118
q-14 0 -18 11t3 21z" />
    <glyph glyph-name="afii10065" unicode="&#x430;" 
d="M640 28q12 -28 -17 -28h-105q-17 0 -24.5 6t-13.5 24l-28 79h-245l-28 -79q-6 -18 -13.5 -24t-24.5 -6h-105q-29 0 -17 28l222 599q12 31 41 31h96q28 0 41 -31zM255 249h150l-75 221z" />
    <glyph glyph-name="afii10066" unicode="&#x431;" horiz-adv-x="669" 
d="M103 659h429q29 0 29 -29v-77q0 -29 -29 -29h-301v-109h130q134 0 197.5 -49t63.5 -155q0 -211 -263 -211h-256q-29 0 -29 29v601q0 29 29 29zM361 284h-130v-146h127q111 0 111 74q0 38 -25 55t-83 17z" />
    <glyph glyph-name="afii10067" unicode="&#x432;" horiz-adv-x="687" 
d="M543 341q5 -2 13 -6t22.5 -16.5t26.5 -28t21 -42t9 -56.5q0 -93 -65 -142.5t-173 -49.5h-294q-29 0 -29 29v601q0 29 29 29h280q115 0 174 -52t59 -129q0 -35 -9.5 -62.5t-24 -43t-23.5 -22t-16 -9.5zM399 142q77 0 77 65q0 61 -83 61h-23q-29 0 -29 29v76q0 29 29 29h13
q83 0 83 60q0 32 -20.5 44t-62.5 12h-152v-376h168z" />
    <glyph glyph-name="afii10068" unicode="&#x433;" horiz-adv-x="540" 
d="M475 522h-244v-493q0 -29 -29 -29h-99q-29 0 -29 29v601q0 29 29 29h372q29 0 29 -29v-79q0 -29 -29 -29z" />
    <glyph glyph-name="afii10069" unicode="&#x434;" horiz-adv-x="713" 
d="M541 -52v63h-366v-63q0 -29 -29 -29h-83q-29 0 -29 29v172q0 29 29 29q38 0 51 16.5t16 49.5l32 414q0 29 29 29h384q29 0 29 -29v-480h48q29 0 29 -29v-172q0 -29 -29 -29h-82q-29 0 -29 29zM284 207q-3 -53 -40 -65h208v381h-143z" />
    <glyph glyph-name="afii10070" unicode="&#x435;" horiz-adv-x="627" 
d="M551 140q29 0 29 -29v-82q0 -29 -29 -29h-448q-29 0 -29 29v600q0 29 29 29h431q29 0 29 -29v-83q0 -29 -29 -29h-302v-109h268q29 0 29 -29v-78q0 -29 -29 -29h-268v-132h319z" />
    <glyph glyph-name="afii10072" unicode="&#x436;" horiz-adv-x="941" 
d="M890 658q13 0 15.5 -10.5t-5.5 -17.5l-199 -240l219 -358q7 -10 2.5 -21t-17.5 -11h-119q-30 0 -50 32q-88 154 -142 244l-46 -58v-189q0 -29 -28 -29h-99q-15 0 -22 6t-7 23v190l-45 57l-142 -244q-20 -32 -50 -32h-119q-13 0 -17.5 11t2.5 21l219 358l-199 240
q-8 7 -5.5 17.5t15.5 10.5h127q18 0 26.5 -4t23.5 -20l164 -220v215q0 17 7 23t22 6h99q28 0 28 -29v-217l165 222q15 16 23.5 20t26.5 4h127z" />
    <glyph glyph-name="afii10073" unicode="&#x437;" horiz-adv-x="574" 
d="M193 303v66q0 23 27 23h45q92 0 92 65q0 43 -26.5 61.5t-64.5 18.5q-77 0 -94 -56q-3 -13 -7.5 -17t-17.5 -4h-87q-17 0 -22.5 5t-5.5 24q0 79 66 131t162 52q108 -1 177 -55t69 -157q0 -45 -24 -80.5t-56 -44.5q43 -16 71 -53t28 -85q0 -111 -70.5 -161t-183.5 -51
q-96 0 -168 55t-72 134q0 19 5.5 24.5t22.5 5.5h89q12 0 17 -4.5t8 -17.5q10 -32 41 -45.5t63 -13.5q37 0 65.5 19t28.5 56q0 78 -106 78h-47q-15 0 -20 6t-5 21z" />
    <glyph glyph-name="afii10074" unicode="&#x438;" horiz-adv-x="682" 
d="M104 658h96q29 0 29 -29v-347l212 342q9 15 12.5 19t12 9.5t20.5 5.5h94q29 0 29 -29v-600q0 -29 -29 -29h-99q-29 0 -29 29v348l-212 -343q-9 -15 -12.5 -19t-12 -9.5t-20.5 -5.5h-91q-29 0 -29 29v600q0 29 29 29z" />
    <glyph glyph-name="afii10075" unicode="&#x439;" horiz-adv-x="682" 
d="M104 658q-29 0 -29 -29v-600q0 -29 29 -29h91q12 0 20.5 5.5t12 9.5t12.5 19l212 343v-348q0 -29 29 -29h99q29 0 29 29v600q0 29 -29 29h-94q-12 0 -20.5 -5.5t-12 -9.5t-12.5 -19l-212 -342v347q0 29 -29 29h-96zM510 871q9 0 9 -20q-9 -60 -54 -91t-110 -32
q-65 1 -110.5 32t-53.5 91q-1 2 -1 6t2 9t8 5h50q9 0 16 -16q9 -23 34.5 -36t54.5 -13q28 0 53.5 13t35.5 36q7 16 16 16h50z" />
    <glyph glyph-name="afii10076" unicode="&#x43a;" horiz-adv-x="654" 
d="M622 658q13 0 15.5 -10.5t-5.5 -17.5l-225 -244l215 -354q7 -10 2.5 -21t-17.5 -11h-122q-30 0 -50 32q-89 150 -143 240l-62 -65v-178q0 -29 -28 -29h-99q-15 0 -22 6t-7 23v600q0 17 7 23t22 6h99q28 0 28 -29v-223l207 228q15 16 23.5 20t26.5 4h135z" />
    <glyph glyph-name="afii10077" unicode="&#x43b;" horiz-adv-x="668" 
d="M101 193l36 436q0 29 29 29h399q29 0 29 -29v-600q0 -29 -29 -29h-99q-29 0 -29 29v489h-160l-22 -326q-8 -122 -47 -160t-155 -36q-19 0 -24.5 5.5t-5.5 22.5v75q0 27 22 27q32 0 42.5 16t13.5 51z" />
    <glyph glyph-name="afii10078" unicode="&#x43c;" horiz-adv-x="767" 
d="M664 659q29 0 29 -29v-601q0 -29 -29 -29h-96q-29 0 -29 29v339l-100 -175q-13 -21 -29 -21h-50q-15 0 -28 21l-101 175v-339q0 -29 -29 -29h-99q-29 0 -29 29v601q0 29 29 29h99q12 0 20.5 -4t12 -8t8 -12.5t5.5 -9.5l137 -246l138 246q1 1 4 7.5t5.5 10t7 8t12 6.5
t16.5 2h96z" />
    <glyph glyph-name="afii10079" unicode="&#x43d;" horiz-adv-x="685" 
d="M582 658q29 0 29 -29v-600q0 -29 -29 -29h-99q-29 0 -29 29v226h-223v-226q0 -17 -7 -23t-22 -6h-99q-29 0 -29 29v600q0 29 29 29h99q15 0 22 -6t7 -23v-226h223v226q0 29 29 29h99z" />
    <glyph glyph-name="afii10080" unicode="&#x43e;" horiz-adv-x="645" 
d="M591 447v-236q0 -57 -25 -101.5t-65 -71t-86 -40t-93 -13.5t-92.5 13.5t-85.5 40t-64.5 71t-24.5 101.5v236q0 57 24.5 101.5t64.5 71t85.5 40t92.5 13.5t93 -13.5t86 -40t65 -71t25 -101.5zM434 225v208q0 47 -31 74t-81 27t-80.5 -27t-30.5 -74v-208q0 -47 30.5 -74
t80.5 -27t81 27t31 74z" />
    <glyph glyph-name="afii10081" unicode="&#x43f;" horiz-adv-x="685" 
d="M582 658q29 0 29 -29v-600q0 -29 -29 -29h-99q-29 0 -29 29v489h-223v-489q0 -17 -7 -23t-22 -6h-99q-29 0 -29 29v600q0 29 29 29h479z" />
    <glyph glyph-name="afii10082" unicode="&#x440;" horiz-adv-x="628" 
d="M328 658q126 0 194 -63t68 -169t-68.5 -168.5t-194.5 -62.5h-96v-166q0 -29 -29 -29h-99q-29 0 -29 29v600q0 29 29 29h225zM327 330q55 0 83.5 26.5t28.5 66.5q0 42 -28 68t-84 26h-96v-187h96z" />
    <glyph glyph-name="afii10083" unicode="&#x441;" horiz-adv-x="632" 
d="M581 195q0 -92 -80.5 -151t-179.5 -59q-47 0 -92.5 13.5t-85.5 40t-65 71.5t-25 101v236q0 56 25 101t65 71.5t85.5 40t92.5 13.5q100 0 175.5 -50t84.5 -140q0 -18 -6.5 -23.5t-24.5 -5.5h-96q-9 0 -14.5 4.5t-9.5 14t-6 12.5q-31 48 -103 48q-50 0 -80.5 -26.5
t-30.5 -73.5v-208q0 -47 30.5 -73.5t80.5 -26.5q94 0 105 68q2 13 3.5 19t7.5 11.5t16 5.5h98q30 0 30 -34z" />
    <glyph glyph-name="afii10084" unicode="&#x442;" horiz-adv-x="574" 
d="M519 658q29 0 29 -29v-83q0 -29 -29 -29h-153v-488q0 -29 -29 -29h-99q-29 0 -29 29v488h-154q-29 0 -29 29v83q0 29 29 29h464z" />
    <glyph glyph-name="afii10085" unicode="&#x443;" horiz-adv-x="647" 
d="M610 659q13 0 17.5 -9t0.5 -20l-291 -602q-9 -18 -17.5 -23t-26.5 -5h-111q-11 0 -14.5 11t2.5 20l75 153l-223 446q-4 11 0.5 20t17.5 9h119q17 0 24.5 -5t14.5 -21l70 -143l60 -137l61 136l68 140q8 17 16 23.5t26 6.5h111z" />
    <glyph glyph-name="afii10086" unicode="&#x444;" horiz-adv-x="804" 
d="M482 78v-51q0 -29 -29 -29h-99q-29 0 -29 29v51h-36q-257 0 -257 227v46q0 231 257 231h36v51q0 29 29 29h99q29 0 29 -31v-49h36q257 0 257 -231v-46q0 -227 -257 -227h-36zM479 209h39q102 0 102 97v45q0 48 -26.5 74.5t-75.5 26.5h-39v-243zM187 351v-45
q0 -97 102 -97h40v243h-40q-49 0 -75.5 -26.5t-26.5 -74.5z" />
    <glyph glyph-name="afii10087" unicode="&#x445;" horiz-adv-x="586" 
d="M386 337l177 -306q6 -9 2.5 -20t-14.5 -11h-114q-18 0 -26 4.5t-18 23.5l-99 178l-100 -178q-9 -18 -17.5 -23t-26.5 -5h-114q-11 0 -14.5 11t2.5 20l178 306l-181 293q-5 8 -1 18t16 10h118q14 0 22 -6t18 -23l100 -161l99 161q11 17 19 23t22 6h117q12 0 16.5 -10
t-1.5 -18z" />
    <glyph glyph-name="afii10088" unicode="&#x446;" horiz-adv-x="704" 
d="M102 0q-29 0 -29 29v600q0 29 29 29h99q29 0 29 -29v-498h209v498q0 17 7 23t22 6h99q29 0 29 -29v-491h48q29 0 29 -29v-172q0 -29 -29 -29h-82q-29 0 -29 29v63h-431z" />
    <glyph glyph-name="afii10089" unicode="&#x447;" horiz-adv-x="661" 
d="M206 449q0 -88 97 -88h127v268q0 29 29 29h99q29 0 29 -29v-600q0 -29 -29 -29h-99q-29 0 -29 29v193h-129q-53 0 -94.5 9.5t-78.5 33t-57.5 70t-20.5 113.5v182q0 29 29 29h98q29 0 29 -29v-181z" />
    <glyph glyph-name="afii10090" unicode="&#x448;" horiz-adv-x="1006" 
d="M103 0q-29 0 -29 29v601q0 29 29 29h99q29 0 29 -29v-493h193v493q0 29 29 29h102q15 0 21 -6.5t6 -22.5v-493h193v493q0 17 7 23t22 6h99q29 0 29 -29v-601q0 -29 -29 -29h-800z" />
    <glyph glyph-name="afii10091" unicode="&#x449;" horiz-adv-x="1041" 
d="M775 137v493q0 17 7 23t22 6h99q29 0 29 -29v-492h47q29 0 29 -29v-172q0 -29 -29 -29h-82q-29 0 -29 29v63h-765q-29 0 -29 29v601q0 29 29 29h99q29 0 29 -29v-493h193v493q0 29 29 29h102q15 0 21 -6.5t6 -22.5v-493h193z" />
    <glyph glyph-name="afii10092" unicode="&#x44a;" horiz-adv-x="701" 
d="M387 0h-225q-29 0 -29 29v487h-68q-29 0 -29 29v85q0 29 29 29h196q29 0 29 -29v-185h96q128 0 195.5 -57t67.5 -164q0 -105 -67.5 -164.5t-194.5 -59.5zM386 310h-96v-169h96q112 0 112 84q0 39 -28 62t-84 23z" />
    <glyph glyph-name="afii10093" unicode="&#x44b;" horiz-adv-x="916" 
d="M328 0h-225q-29 0 -29 29v601q0 29 29 29h99q29 0 29 -29v-185h96q128 0 195.5 -57t67.5 -164q0 -105 -67.5 -164.5t-194.5 -59.5zM327 310h-96v-169h96q112 0 112 84q0 39 -28 62t-84 23zM842 630v-601q0 -29 -29 -29h-99q-29 0 -29 29v601q0 29 29 29h99q29 0 29 -29z
" />
    <glyph glyph-name="afii10094" unicode="&#x44c;" horiz-adv-x="642" 
d="M328 0h-225q-29 0 -29 29v601q0 29 29 29h99q29 0 29 -29v-185h96q128 0 195.5 -57t67.5 -164q0 -105 -67.5 -164.5t-194.5 -59.5zM327 310h-96v-169h96q112 0 112 84q0 39 -28 62t-84 23z" />
    <glyph glyph-name="afii10095" unicode="&#x44d;" horiz-adv-x="632" 
d="M45 195q0 34 30 34h98q15 0 19.5 -8.5t7.5 -27.5q11 -68 105 -68q50 0 80.5 26.5t30.5 73.5v47h-161q-29 0 -29 29v75q0 29 29 29h161v28q0 47 -30.5 73.5t-80.5 26.5q-72 0 -103 -48q-2 -3 -6 -12.5t-9.5 -14t-14.5 -4.5h-96q-18 0 -24.5 5.5t-6.5 23.5q9 90 84.5 140
t175.5 50q47 0 92.5 -13.5t85.5 -40t65 -71.5t25 -101v-236q0 -56 -25 -101t-65 -71.5t-85.5 -40t-92.5 -13.5q-99 0 -179.5 59t-80.5 151z" />
    <glyph glyph-name="afii10096" unicode="&#x44e;" horiz-adv-x="941" 
d="M883 447v-236q0 -57 -24.5 -101.5t-64 -71t-84.5 -40t-92 -13.5q-64 0 -121.5 22.5t-99.5 75.5t-42 128v48h-124v-230q0 -17 -7 -23t-22 -6h-99q-29 0 -29 29v600q0 29 29 29h99q15 0 22 -6t7 -23v-231h124v49q0 75 42 128t99.5 75.5t121.5 22.5q47 0 92 -13.5t84.5 -40
t64 -71t24.5 -101.5zM726 225v208q0 48 -29 74.5t-79 26.5q-49 0 -78 -26.5t-29 -74.5v-208q0 -48 29 -74.5t78 -26.5q50 0 79 26.5t29 74.5z" />
    <glyph glyph-name="bgq" unicode="&#x44f;" horiz-adv-x="656" 
d="M43 32l141 205q-53 18 -96 72t-43 127q0 101 58 157q34 34 77.5 49t121.5 15h252q28 0 28 -29v-599q0 -29 -28 -29h-99q-29 0 -29 29v488h-133q-40 0 -66 -23.5t-26 -61.5q0 -34 28.5 -57.5t66.5 -23.5h20q29 0 29 -29v-80q0 -36 -11 -51l-108 -161q-20 -30 -50 -30h-118
q-14 0 -18 11t3 21z" />
    <glyph glyph-name="endash" unicode="&#x2013;" horiz-adv-x="569" 
d="M491 344q29 0 29 -29v-78q0 -29 -29 -29h-413q-29 0 -29 29v78q0 29 29 29h413z" />
    <glyph glyph-name="emdash" unicode="&#x2014;" horiz-adv-x="765" 
d="M687 344q29 0 29 -29v-78q0 -29 -29 -29h-609q-29 0 -29 29v78q0 29 29 29h609z" />
    <glyph glyph-name="quoteleft" unicode="&#x2018;" horiz-adv-x="301" 
d="M206 361h-111q-29 0 -29 29v90q0 28 7 47l57 116q10 18 27 18h64q10 0 12.5 -9t-2.5 -19l-55 -103h30q29 0 29 -29v-111q0 -29 -29 -29z" />
    <glyph glyph-name="quoteright" unicode="&#x2019;" horiz-adv-x="305" 
d="M239 626v-97q0 -19 -7 -37l-57 -116q-11 -18 -27 -18h-73q-9 0 -9 8q0 4 3 9l60 114h-28q-19 0 -25 6t-6 26v105q0 20 6 26t25 6h107q19 0 25 -6t6 -26z" />
    <glyph glyph-name="quotesinglbase" unicode="&#x201a;" horiz-adv-x="301" 
d="M206 169q29 0 29 -29v-90q0 -28 -7 -47l-57 -116q-11 -18 -27 -18h-64q-10 0 -12.5 9t2.5 19l55 103h-30q-29 0 -29 29v111q0 29 29 29h111z" />
    <glyph glyph-name="quotedblleft" unicode="&#x201c;" horiz-adv-x="546" 
d="M206 358h-111q-29 0 -29 29v90q0 28 7 47l57 116q10 18 27 18h64q10 0 12.5 -9t-3.5 -19l-54 -103h30q29 0 29 -29v-111q0 -29 -29 -29zM451 358h-111q-29 0 -29 29v90q0 28 7 47l57 116q11 18 27 18h64q10 0 12.5 -9t-2.5 -19l-55 -103h30q29 0 29 -29v-111
q0 -29 -29 -29z" />
    <glyph glyph-name="quotedblright" unicode="&#x201d;" horiz-adv-x="546" 
d="M340 658h111q29 0 29 -29v-90q0 -28 -7 -47l-57 -116q-10 -18 -27 -18h-64q-10 0 -12.5 9t3.5 19l54 103h-30q-29 0 -29 29v111q0 29 29 29zM95 658h111q29 0 29 -29v-90q0 -28 -7 -47l-57 -116q-11 -18 -27 -18h-64q-10 0 -12.5 9t2.5 19l55 103h-30q-29 0 -29 29v111
q0 29 29 29z" />
    <glyph glyph-name="quotedblbase" unicode="&#x201e;" horiz-adv-x="546" 
d="M451 169q29 0 29 -29v-90q0 -28 -7 -47l-57 -116q-10 -18 -27 -18h-64q-10 0 -12.5 9t3.5 19l54 103h-30q-29 0 -29 29v111q0 29 29 29h111zM206 169q29 0 29 -29v-90q0 -28 -7 -47l-57 -116q-11 -18 -27 -18h-64q-10 0 -12.5 9t2.5 19l55 103h-30q-29 0 -29 29v111
q0 29 29 29h111z" />
    <glyph glyph-name="bullet" unicode="&#x2022;" horiz-adv-x="470" 
d="M72 357q0 55 37.5 92.5t92.5 37.5t93 -37.5t38 -92.5t-38 -93t-93 -38t-92.5 38t-37.5 93z" />
    <glyph glyph-name="ellipsis" unicode="&#x2026;" horiz-adv-x="899" 
d="M197 168q29 0 29 -29v-111q0 -29 -29 -29h-111q-29 0 -29 29v111q0 29 29 29h111zM749 168q29 0 29 -29v-111q0 -29 -29 -29h-111q-29 0 -29 29v111q0 29 29 29h111zM473 168q29 0 29 -29v-111q0 -29 -29 -29h-111q-29 0 -29 29v111q0 29 29 29h111z" />
    <glyph glyph-name="perthousand" unicode="&#x2030;" horiz-adv-x="1243" 
d="M345 460q0 -59 -42.5 -95.5t-102.5 -36.5t-102.5 36.5t-42.5 95.5v87q0 59 42.5 96t102.5 37t102.5 -37t42.5 -96v-87zM238 462v83q0 16 -11 29.5t-27 13.5t-27.5 -13.5t-11.5 -29.5v-83q0 -17 11 -30t28 -13t27.5 13t10.5 30zM1042 369q60 0 102.5 -37t42.5 -95v-88
q0 -59 -42.5 -96t-102.5 -37t-102.5 37t-42.5 96v88q0 58 42.5 95t102.5 37zM1081 152v82q0 17 -11 30.5t-28 13.5q-16 0 -27 -13.5t-11 -30.5v-82q0 -17 11 -30.5t27 -13.5q17 0 28 13.5t11 30.5zM655 698q13 0 17 -8.5t-1 -17.5l-352 -643q-17 -29 -36 -29h-58
q-26 0 -16 25l351 643q18 30 37 30h58zM689 369q60 0 102.5 -37t42.5 -95v-88q0 -59 -42.5 -96t-102.5 -37t-102.5 37t-42.5 96v88q0 58 42.5 95t102.5 37zM728 152v82q0 17 -11 30.5t-28 13.5q-16 0 -27 -13.5t-11 -30.5v-82q0 -17 11 -30.5t27 -13.5q17 0 28 13.5t11 30.5
z" />
    <glyph glyph-name="guilsinglleft" unicode="&#x2039;" horiz-adv-x="254" 
d="M179 485q7 8 16.5 4t9.5 -16v-88q0 -18 -21 -35l-62 -51l62 -51q21 -17 21 -34v-89q0 -11 -9.5 -15t-16.5 4l-137 119q-12 11 -12 27v78q0 16 12 27z" />
    <glyph glyph-name="guilsinglright" unicode="&#x203a;" horiz-adv-x="246" 
d="M65 485l137 -120q12 -11 12 -27v-78q0 -16 -12 -27l-137 -119q-7 -8 -16.5 -4t-9.5 15v89q0 17 21 34l62 51l-62 51q-21 17 -21 35v88q0 12 9.5 16t16.5 -4z" />
    <glyph glyph-name="Euro" unicode="&#x20ac;" horiz-adv-x="687" 
d="M615 228q30 0 30 -34q0 -92 -80 -150.5t-180 -58.5q-47 0 -92.5 13.5t-85.5 39.5t-65 71t-25 101v4h-53q-29 0 -29 29v36q0 29 29 29h53v48h-53q-29 0 -29 29v36q0 29 29 29h53q1 73 44.5 125t102 74.5t121.5 22.5q100 0 175.5 -50t84.5 -140q0 -18 -6.5 -23.5
t-24.5 -5.5h-96q-9 0 -14.5 4.5t-9.5 14t-6 12.5q-31 48 -103 48q-45 0 -74.5 -21.5t-34.5 -60.5h131q29 0 29 -29v-36q0 -29 -29 -29h-133v-48h133q29 0 29 -29v-36q0 -29 -29 -29h-132q3 -42 33 -66t77 -24q94 0 105 68q2 13 3.5 19t7.5 11.5t16 5.5h98z" />
    <glyph glyph-name="minus" unicode="&#x2212;" horiz-adv-x="505" 
d="M427 344q29 0 29 -29v-78q0 -29 -29 -29h-349q-29 0 -29 29v78q0 29 29 29h349z" />
    </font>
</defs>
</svg>
